<svg width="1157" height="356" viewBox="0 0 1157 356" fill="none" xmlns="http://www.w3.org/2000/svg">
<path d="M112.582 295.45H1148.34" stroke="white"/>
<path d="M112.582 18.65V295.45" stroke="white"/>
<path d="M102.188 295.45H112.58" stroke="white"/>
<path d="M89.7782 286.809C89.1361 286.809 88.5892 286.635 88.1375 286.285C87.6858 285.933 87.3407 285.423 87.102 284.755C86.8634 284.085 86.7441 283.275 86.7441 282.326C86.7441 281.383 86.8634 280.578 87.102 279.91C87.3435 279.24 87.6901 278.728 88.1418 278.376C88.5963 278.021 89.1418 277.843 89.7782 277.843C90.4145 277.843 90.9586 278.021 91.4103 278.376C91.8648 278.728 92.2114 279.24 92.45 279.91C92.6915 280.578 92.8123 281.383 92.8123 282.326C92.8123 283.275 92.6929 284.085 92.4543 284.755C92.2157 285.423 91.8705 285.933 91.4188 286.285C90.9671 286.635 90.4202 286.809 89.7782 286.809ZM89.7782 285.872C90.4145 285.872 90.9088 285.565 91.2611 284.951C91.6134 284.338 91.7895 283.463 91.7895 282.326C91.7895 281.571 91.7086 280.927 91.5466 280.396C91.3875 279.865 91.1574 279.46 90.8563 279.182C90.558 278.903 90.1986 278.764 89.7782 278.764C89.1475 278.764 88.6546 279.075 88.2995 279.697C87.9444 280.316 87.7668 281.193 87.7668 282.326C87.7668 283.082 87.8463 283.724 88.0054 284.253C88.1645 284.781 88.3932 285.183 88.6915 285.459C88.9927 285.734 89.3549 285.872 89.7782 285.872Z" fill="white"/>
<path d="M97.6914 222.543H112.735" stroke="white"/>
<path d="M71.4925 213.783V213.016L74.3732 209.863C74.7113 209.493 74.9897 209.172 75.2084 208.899C75.4272 208.624 75.5891 208.365 75.6942 208.124C75.8022 207.88 75.8562 207.624 75.8562 207.357C75.8562 207.05 75.7823 206.784 75.6346 206.56C75.4897 206.336 75.2908 206.162 75.038 206.04C74.7851 205.918 74.5011 205.857 74.1857 205.857C73.8505 205.857 73.5579 205.926 73.3079 206.066C73.0607 206.202 72.869 206.394 72.7326 206.641C72.5991 206.888 72.5323 207.178 72.5323 207.51H71.5266C71.5266 206.999 71.6445 206.55 71.8803 206.164C72.1161 205.777 72.4371 205.476 72.8434 205.26C73.2525 205.044 73.7113 204.936 74.2198 204.936C74.7312 204.936 75.1843 205.044 75.5792 205.26C75.9741 205.476 76.2837 205.767 76.5082 206.134C76.7326 206.5 76.8448 206.908 76.8448 207.357C76.8448 207.678 76.7866 207.992 76.6701 208.299C76.5565 208.603 76.3576 208.942 76.0735 209.317C75.7922 209.689 75.4016 210.144 74.9016 210.681L72.9414 212.777V212.845H76.9982V213.783H71.4925ZM81.4854 213.902C80.9854 213.902 80.5351 213.803 80.1346 213.604C79.734 213.405 79.413 213.132 79.1715 212.786C78.93 212.439 78.7979 212.044 78.7752 211.601H79.7979C79.8377 211.996 80.0167 212.323 80.3349 212.581C80.6559 212.837 81.0394 212.965 81.4854 212.965C81.8434 212.965 82.1616 212.881 82.44 212.713C82.7212 212.546 82.9414 212.316 83.1005 212.023C83.2624 211.728 83.3434 211.394 83.3434 211.022C83.3434 210.641 83.2596 210.301 83.092 210.003C82.9272 209.702 82.6999 209.465 82.4101 209.291C82.1204 209.118 81.7894 209.03 81.4172 209.027C81.1502 209.024 80.8761 209.066 80.5948 209.151C80.3136 209.233 80.082 209.34 79.9002 209.47L78.9116 209.351L79.44 205.056H83.9741V205.993H80.3263L80.0195 208.567H80.0707C80.2496 208.425 80.4741 208.307 80.744 208.213C81.0138 208.12 81.2951 208.073 81.5877 208.073C82.1218 208.073 82.5976 208.201 83.0153 208.456C83.4357 208.709 83.7653 209.056 84.0039 209.496C84.2454 209.936 84.3661 210.439 84.3661 211.005C84.3661 211.561 84.2411 212.059 83.9911 212.496C83.744 212.931 83.403 213.274 82.9684 213.527C82.5337 213.777 82.0394 213.902 81.4854 213.902Z" fill="white"/>
<path d="M98.6797 157.05H112.926" stroke="white"/>
<path d="M75.0683 154.588C74.5683 154.588 74.118 154.489 73.7174 154.29C73.3169 154.091 72.9959 153.818 72.7544 153.471C72.5129 153.125 72.3808 152.73 72.3581 152.287H73.3808C73.4206 152.682 73.5996 153.008 73.9177 153.267C74.2388 153.523 74.6223 153.65 75.0683 153.65C75.4263 153.65 75.7444 153.567 76.0228 153.399C76.3041 153.231 76.5243 153.001 76.6834 152.709C76.8453 152.413 76.9263 152.079 76.9263 151.707C76.9263 151.327 76.8424 150.987 76.6748 150.689C76.5101 150.388 76.2828 150.15 75.993 149.977C75.7032 149.804 75.3723 149.716 75.0001 149.713C74.7331 149.71 74.4589 149.751 74.1777 149.837C73.8964 149.919 73.6649 150.025 73.4831 150.156L72.4944 150.037L73.0228 145.741H77.5569V146.679H73.9092L73.6024 149.253H73.6535C73.8325 149.111 74.0569 148.993 74.3268 148.899C74.5967 148.805 74.878 148.758 75.1706 148.758C75.7047 148.758 76.1805 148.886 76.5981 149.142C77.0186 149.395 77.3481 149.741 77.5868 150.182C77.8282 150.622 77.949 151.125 77.949 151.69C77.949 152.247 77.824 152.744 77.574 153.182C77.3268 153.616 76.9859 153.96 76.5513 154.213C76.1166 154.463 75.6223 154.588 75.0683 154.588ZM82.4884 154.588C81.8464 154.588 81.2995 154.413 80.8478 154.064C80.3961 153.712 80.0509 153.202 79.8123 152.534C79.5736 151.864 79.4543 151.054 79.4543 150.105C79.4543 149.162 79.5736 148.356 79.8123 147.689C80.0537 147.018 80.4003 146.507 80.852 146.155C81.3066 145.8 81.852 145.622 82.4884 145.622C83.1248 145.622 83.6688 145.8 84.1205 146.155C84.575 146.507 84.9216 147.018 85.1603 147.689C85.4018 148.356 85.5225 149.162 85.5225 150.105C85.5225 151.054 85.4032 151.864 85.1645 152.534C84.9259 153.202 84.5807 153.712 84.129 154.064C83.6773 154.413 83.1304 154.588 82.4884 154.588ZM82.4884 153.65C83.1248 153.65 83.6191 153.344 83.9714 152.73C84.3236 152.116 84.4998 151.241 84.4998 150.105C84.4998 149.349 84.4188 148.706 84.2569 148.175C84.0978 147.643 83.8677 147.239 83.5665 146.96C83.2682 146.682 82.9089 146.542 82.4884 146.542C81.8577 146.542 81.3648 146.854 81.0097 147.476C80.6546 148.095 80.477 148.971 80.477 150.105C80.477 150.861 80.5566 151.503 80.7157 152.031C80.8748 152.56 81.1035 152.962 81.4018 153.237C81.7029 153.513 82.0651 153.65 82.4884 153.65Z" fill="white"/>
<path d="M97.2344 94.0286H112.735" stroke="white"/>
<path d="M71.4551 85.2686L75.3585 77.547V77.4788H70.8585V76.5413H76.4494V77.5299L72.5631 85.2686H71.4551ZM80.6479 85.3879C80.1479 85.3879 79.6977 85.2884 79.2971 85.0896C78.8965 84.8907 78.5755 84.618 78.334 84.2714C78.0925 83.9248 77.9604 83.5299 77.9377 83.0867H78.9604C79.0002 83.4816 79.1792 83.8083 79.4974 84.0669C79.8184 84.3225 80.2019 84.4504 80.6479 84.4504C81.0059 84.4504 81.3241 84.3666 81.6025 84.199C81.8837 84.0313 82.1039 83.8012 82.263 83.5086C82.4249 83.2132 82.5059 82.8794 82.5059 82.5072C82.5059 82.1265 82.4221 81.787 82.2545 81.4887C82.0897 81.1876 81.8624 80.9504 81.5727 80.7771C81.2829 80.6038 80.9519 80.5157 80.5798 80.5129C80.3127 80.51 80.0386 80.5512 79.7573 80.6365C79.4761 80.7188 79.2445 80.8254 79.0627 80.9561L78.0741 80.8367L78.6025 76.5413H83.1366V77.4788H79.4889L79.182 80.0526H79.2332C79.4121 79.9106 79.6366 79.7927 79.9065 79.699C80.1764 79.6052 80.4576 79.5583 80.7502 79.5583C81.2843 79.5583 81.7602 79.6862 82.1778 79.9418C82.5982 80.1947 82.9278 80.5413 83.1664 80.9816C83.4079 81.422 83.5286 81.9248 83.5286 82.4901C83.5286 83.047 83.4036 83.5441 83.1536 83.9816C82.9065 84.4163 82.5656 84.76 82.1309 85.0129C81.6962 85.2629 81.2019 85.3879 80.6479 85.3879Z" fill="white"/>
<path d="M102.488 18.65H112.927" stroke="white"/>
<path d="M82.7344 7.34133V16.0686H81.6775V8.44929H81.6264L79.4957 9.86406V8.79019L81.6775 7.34133H82.7344ZM88.0909 16.1879C87.4488 16.1879 86.902 16.0132 86.4503 15.6638C85.9986 15.3115 85.6534 14.8016 85.4148 14.1339C85.1761 13.4635 85.0568 12.6538 85.0568 11.705C85.0568 10.7618 85.1761 9.95639 85.4148 9.28877C85.6562 8.61832 86.0028 8.10696 86.4545 7.75468C86.9091 7.39957 87.4545 7.22201 88.0909 7.22201C88.7273 7.22201 89.2713 7.39957 89.723 7.75468C90.1775 8.10696 90.5241 8.61832 90.7628 9.28877C91.0042 9.95639 91.125 10.7618 91.125 11.705C91.125 12.6538 91.0057 13.4635 90.767 14.1339C90.5284 14.8016 90.1832 15.3115 89.7315 15.6638C89.2798 16.0132 88.7329 16.1879 88.0909 16.1879ZM88.0909 15.2504C88.7273 15.2504 89.2216 14.9436 89.5738 14.33C89.9261 13.7163 90.1023 12.8413 90.1023 11.705C90.1023 10.9493 90.0213 10.3058 89.8594 9.77457C89.7003 9.24332 89.4702 8.83849 89.169 8.56008C88.8707 8.28167 88.5113 8.14247 88.0909 8.14247C87.4602 8.14247 86.9673 8.45355 86.6122 9.07571C86.2571 9.69502 86.0795 10.5714 86.0795 11.705C86.0795 12.4606 86.1591 13.1027 86.3182 13.6311C86.4773 14.1595 86.7059 14.5615 87.0042 14.8371C87.3054 15.1126 87.6676 15.2504 88.0909 15.2504ZM95.5909 16.1879C94.9488 16.1879 94.402 16.0132 93.9503 15.6638C93.4986 15.3115 93.1534 14.8016 92.9148 14.1339C92.6761 13.4635 92.5568 12.6538 92.5568 11.705C92.5568 10.7618 92.6761 9.95639 92.9148 9.28877C93.1562 8.61832 93.5028 8.10696 93.9545 7.75468C94.4091 7.39957 94.9545 7.22201 95.5909 7.22201C96.2273 7.22201 96.7713 7.39957 97.223 7.75468C97.6775 8.10696 98.0241 8.61832 98.2628 9.28877C98.5042 9.95639 98.625 10.7618 98.625 11.705C98.625 12.6538 98.5057 13.4635 98.267 14.1339C98.0284 14.8016 97.6832 15.3115 97.2315 15.6638C96.7798 16.0132 96.2329 16.1879 95.5909 16.1879ZM95.5909 15.2504C96.2273 15.2504 96.7216 14.9436 97.0738 14.33C97.4261 13.7163 97.6023 12.8413 97.6023 11.705C97.6023 10.9493 97.5213 10.3058 97.3594 9.77457C97.2003 9.24332 96.9702 8.83849 96.669 8.56008C96.3707 8.28167 96.0113 8.14247 95.5909 8.14247C94.9602 8.14247 94.4673 8.45355 94.1122 9.07571C93.7571 9.69502 93.5795 10.5714 93.5795 11.705C93.5795 12.4606 93.6591 13.1027 93.8182 13.6311C93.9773 14.1595 94.2059 14.5615 94.5042 14.8371C94.8054 15.1126 95.1676 15.2504 95.5909 15.2504Z" fill="white"/>
<path d="M245.191 64.2175H343.917V293.962H245.191V64.2175Z" fill="#186BFF"/>
<path d="M397.414 174.894H496.14V293.918H397.414V174.894Z" fill="#33D8FE"/>
<path d="M136 174.894H234.726V293.918H136V174.894Z" fill="#33D8FE"/>
<path d="M656.352 118.743H755.078V293.918H656.352V118.743Z" fill="#53DAF9"/>
<path d="M915.293 80.7817H1014.02V293.918H915.293V80.7817Z" fill="#53DAF9"/>
<path d="M503.07 33.7257H601.796V293.918H503.07V33.7257Z" fill="#186BFF"/>
<path d="M762.008 104.903H860.734V293.918H762.008V104.903Z" fill="#186BFF"/>
<path d="M1020.95 53.1017H1119.68V293.918H1020.95V53.1017Z" fill="#186BFF"/>
<path d="M1009.89 328.332V318.3H1011.62V322.548L1012.67 322.176V318.3H1014.41V328.332H1012.67V323.796L1011.62 324.168V328.332H1009.89ZM1009.17 318.54V320.004H1005.51V326.748H1009.29V328.212H1003.78V318.54H1009.17ZM1025.52 318.3V325.464H1023.64V318.3H1025.52ZM1018.29 325.152V327.12H1025.64V328.572H1016.4V325.152H1018.29ZM1015.54 321.372C1015.54 320.892 1015.62 320.464 1015.79 320.088C1015.96 319.704 1016.19 319.38 1016.49 319.116C1016.79 318.852 1017.15 318.652 1017.57 318.516C1017.99 318.372 1018.45 318.3 1018.96 318.3C1019.46 318.3 1019.92 318.372 1020.34 318.516C1020.76 318.652 1021.12 318.852 1021.42 319.116C1021.72 319.38 1021.96 319.704 1022.13 320.088C1022.29 320.464 1022.38 320.892 1022.38 321.372C1022.38 321.844 1022.29 322.268 1022.13 322.644C1021.96 323.02 1021.72 323.34 1021.42 323.604C1021.12 323.868 1020.76 324.072 1020.34 324.216C1019.92 324.36 1019.46 324.432 1018.96 324.432C1018.45 324.432 1017.99 324.36 1017.57 324.216C1017.15 324.072 1016.79 323.868 1016.49 323.604C1016.19 323.34 1015.96 323.02 1015.79 322.644C1015.62 322.268 1015.54 321.844 1015.54 321.372ZM1018.96 322.968C1019.16 322.968 1019.35 322.932 1019.53 322.86C1019.73 322.788 1019.89 322.684 1020.03 322.548C1020.17 322.404 1020.28 322.236 1020.36 322.044C1020.45 321.844 1020.49 321.62 1020.49 321.372C1020.49 321.116 1020.45 320.888 1020.36 320.688C1020.28 320.488 1020.17 320.32 1020.03 320.184C1019.89 320.048 1019.73 319.944 1019.53 319.872C1019.35 319.8 1019.16 319.764 1018.96 319.764C1018.75 319.764 1018.55 319.8 1018.37 319.872C1018.19 319.944 1018.02 320.048 1017.88 320.184C1017.74 320.32 1017.63 320.488 1017.54 320.688C1017.46 320.888 1017.42 321.116 1017.42 321.372C1017.42 321.62 1017.46 321.844 1017.54 322.044C1017.63 322.236 1017.74 322.404 1017.88 322.548C1018.02 322.684 1018.19 322.788 1018.37 322.86C1018.55 322.932 1018.75 322.968 1018.96 322.968ZM1029.17 325.212V327.12H1036.69V328.572H1027.29V325.212H1029.17ZM1036.57 322.128V326.172H1034.68V318.3H1036.57V320.664H1037.61V322.128H1036.57ZM1028.57 323.088V320.94H1030.46V323.088H1033.97V324.552H1026.73V323.088H1028.57ZM1027.15 319.884V318.42H1033.52V322.428H1031.63V319.884H1027.15ZM1041.89 328.212V320.004H1038.47V318.54H1043.62V320.604L1044.76 320.208V318.3H1046.48V328.332H1044.76V325.908L1043.62 326.304V328.212H1041.89ZM1049.1 328.332H1047.36V318.3H1049.1V328.332ZM1043.62 324.684L1044.76 324.288V321.828L1043.62 322.224V324.684Z" fill="white"/>
<path d="M273.088 46.87V45.306L277.474 41.464C277.859 41.124 278.211 40.7897 278.528 40.461C278.857 40.1323 279.14 39.8037 279.378 39.475C279.616 39.1463 279.803 38.8177 279.939 38.489C280.075 38.1603 280.143 37.8317 280.143 37.503C280.143 36.8003 279.945 36.2507 279.548 35.854C279.151 35.446 278.596 35.242 277.882 35.242C277.213 35.242 276.607 35.497 276.063 36.007C275.519 36.5057 275.1 37.1517 274.805 37.945L272.731 36.806C272.924 36.2733 273.179 35.786 273.496 35.344C273.813 34.8907 274.193 34.5053 274.635 34.188C275.088 33.8593 275.604 33.61 276.182 33.44C276.76 33.2587 277.406 33.168 278.12 33.168C278.743 33.168 279.338 33.2587 279.905 33.44C280.483 33.61 280.987 33.8763 281.418 34.239C281.86 34.5903 282.2 35.0437 282.438 35.599C282.687 36.143 282.801 36.789 282.778 37.537C282.767 37.9337 282.676 38.3473 282.506 38.778C282.347 39.1973 282.126 39.6223 281.843 40.053C281.571 40.4837 281.248 40.9143 280.874 41.345C280.5 41.7643 280.092 42.1667 279.65 42.552L277.066 44.813H283.305V46.87H273.088ZM284.669 40.172C284.669 39.0953 284.794 38.1263 285.043 37.265C285.292 36.3923 285.655 35.6557 286.131 35.055C286.618 34.443 287.213 33.9783 287.916 33.661C288.619 33.3323 289.423 33.168 290.33 33.168C291.225 33.168 292.019 33.3323 292.71 33.661C293.413 33.9783 294.008 34.443 294.495 35.055C294.982 35.6557 295.351 36.3923 295.6 37.265C295.861 38.1263 295.991 39.0953 295.991 40.172C295.991 41.2487 295.872 42.2233 295.634 43.096C295.396 43.9573 295.039 44.694 294.563 45.306C294.087 45.918 293.492 46.3883 292.778 46.717C292.075 47.0457 291.259 47.21 290.33 47.21C289.423 47.21 288.619 47.0457 287.916 46.717C287.213 46.3883 286.618 45.918 286.131 45.306C285.655 44.694 285.292 43.9573 285.043 43.096C284.794 42.2233 284.669 41.2487 284.669 40.172ZM287.355 40.172C287.355 41.056 287.434 41.8097 287.593 42.433C287.752 43.0563 287.967 43.572 288.239 43.98C288.511 44.3767 288.823 44.6713 289.174 44.864C289.537 45.0453 289.922 45.136 290.33 45.136C290.749 45.136 291.14 45.0453 291.503 44.864C291.866 44.6713 292.183 44.3767 292.455 43.98C292.727 43.572 292.937 43.0563 293.084 42.433C293.243 41.8097 293.322 41.056 293.322 40.172C293.322 39.2993 293.243 38.5513 293.084 37.928C292.937 37.3047 292.727 36.7947 292.455 36.398C292.183 36.0013 291.866 35.7123 291.503 35.531C291.14 35.3383 290.749 35.242 290.33 35.242C289.922 35.242 289.537 35.3383 289.174 35.531C288.823 35.7123 288.511 36.0013 288.239 36.398C287.967 36.7947 287.752 37.3047 287.593 37.928C287.434 38.5513 287.355 39.2993 287.355 40.172ZM297.409 46.87V45.306L301.795 41.464C302.181 41.124 302.532 40.7897 302.849 40.461C303.178 40.1323 303.461 39.8037 303.699 39.475C303.937 39.1463 304.124 38.8177 304.26 38.489C304.396 38.1603 304.464 37.8317 304.464 37.503C304.464 36.8003 304.266 36.2507 303.869 35.854C303.473 35.446 302.917 35.242 302.203 35.242C301.535 35.242 300.928 35.497 300.384 36.007C299.84 36.5057 299.421 37.1517 299.126 37.945L297.052 36.806C297.245 36.2733 297.5 35.786 297.817 35.344C298.135 34.8907 298.514 34.5053 298.956 34.188C299.41 33.8593 299.925 33.61 300.503 33.44C301.081 33.2587 301.727 33.168 302.441 33.168C303.065 33.168 303.66 33.2587 304.226 33.44C304.804 33.61 305.309 33.8763 305.739 34.239C306.181 34.5903 306.521 35.0437 306.759 35.599C307.009 36.143 307.122 36.789 307.099 37.537C307.088 37.9337 306.997 38.3473 306.827 38.778C306.669 39.1973 306.448 39.6223 306.164 40.053C305.892 40.4837 305.569 40.9143 305.195 41.345C304.821 41.7643 304.413 42.1667 303.971 42.552L301.387 44.813H307.626V46.87H297.409ZM308.99 40.172C308.99 39.0953 309.115 38.1263 309.364 37.265C309.614 36.3923 309.976 35.6557 310.452 35.055C310.94 34.443 311.535 33.9783 312.237 33.661C312.94 33.3323 313.745 33.168 314.651 33.168C315.547 33.168 316.34 33.3323 317.031 33.661C317.734 33.9783 318.329 34.443 318.816 35.055C319.304 35.6557 319.672 36.3923 319.921 37.265C320.182 38.1263 320.312 39.0953 320.312 40.172C320.312 41.2487 320.193 42.2233 319.955 43.096C319.717 43.9573 319.36 44.694 318.884 45.306C318.408 45.918 317.813 46.3883 317.099 46.717C316.397 47.0457 315.581 47.21 314.651 47.21C313.745 47.21 312.94 47.0457 312.237 46.717C311.535 46.3883 310.94 45.918 310.452 45.306C309.976 44.694 309.614 43.9573 309.364 43.096C309.115 42.2233 308.99 41.2487 308.99 40.172ZM311.676 40.172C311.676 41.056 311.756 41.8097 311.914 42.433C312.073 43.0563 312.288 43.572 312.56 43.98C312.832 44.3767 313.144 44.6713 313.495 44.864C313.858 45.0453 314.243 45.136 314.651 45.136C315.071 45.136 315.462 45.0453 315.824 44.864C316.187 44.6713 316.504 44.3767 316.776 43.98C317.048 43.572 317.258 43.0563 317.405 42.433C317.564 41.8097 317.643 41.056 317.643 40.172C317.643 39.2993 317.564 38.5513 317.405 37.928C317.258 37.3047 317.048 36.7947 316.776 36.398C316.504 36.0013 316.187 35.7123 315.824 35.531C315.462 35.3383 315.071 35.242 314.651 35.242C314.243 35.242 313.858 35.3383 313.495 35.531C313.144 35.7123 312.832 36.0013 312.56 36.398C312.288 36.7947 312.073 37.3047 311.914 37.928C311.756 38.5513 311.676 39.2993 311.676 40.172Z" fill="white"/>
<path d="M429.018 135.819V134.255L433.404 130.413C433.789 130.073 434.14 129.738 434.458 129.41C434.786 129.081 435.07 128.752 435.308 128.424C435.546 128.095 435.733 127.766 435.869 127.438C436.005 127.109 436.073 126.78 436.073 126.452C436.073 125.749 435.874 125.199 435.478 124.803C435.081 124.395 434.526 124.191 433.812 124.191C433.143 124.191 432.537 124.446 431.993 124.956C431.449 125.454 431.029 126.1 430.735 126.894L428.661 125.755C428.853 125.222 429.108 124.735 429.426 124.293C429.743 123.839 430.123 123.454 430.565 123.137C431.018 122.808 431.534 122.559 432.112 122.389C432.69 122.207 433.336 122.117 434.05 122.117C434.673 122.117 435.268 122.207 435.835 122.389C436.413 122.559 436.917 122.825 437.348 123.188C437.79 123.539 438.13 123.992 438.368 124.548C438.617 125.092 438.73 125.738 438.708 126.486C438.696 126.882 438.606 127.296 438.436 127.727C438.277 128.146 438.056 128.571 437.773 129.002C437.501 129.432 437.178 129.863 436.804 130.294C436.43 130.713 436.022 131.115 435.58 131.501L432.996 133.762H439.235V135.819H429.018ZM440.599 129.121C440.599 128.044 440.723 127.075 440.973 126.214C441.222 125.341 441.585 124.604 442.061 124.004C442.548 123.392 443.143 122.927 443.846 122.61C444.548 122.281 445.353 122.117 446.26 122.117C447.155 122.117 447.948 122.281 448.64 122.61C449.342 122.927 449.937 123.392 450.425 124.004C450.912 124.604 451.28 125.341 451.53 126.214C451.79 127.075 451.921 128.044 451.921 129.121C451.921 130.197 451.802 131.172 451.564 132.045C451.326 132.906 450.969 133.643 450.493 134.255C450.017 134.867 449.422 135.337 448.708 135.666C448.005 135.994 447.189 136.159 446.26 136.159C445.353 136.159 444.548 135.994 443.846 135.666C443.143 135.337 442.548 134.867 442.061 134.255C441.585 133.643 441.222 132.906 440.973 132.045C440.723 131.172 440.599 130.197 440.599 129.121ZM443.285 129.121C443.285 130.005 443.364 130.758 443.523 131.382C443.681 132.005 443.897 132.521 444.169 132.929C444.441 133.325 444.752 133.62 445.104 133.813C445.466 133.994 445.852 134.085 446.26 134.085C446.679 134.085 447.07 133.994 447.433 133.813C447.795 133.62 448.113 133.325 448.385 132.929C448.657 132.521 448.866 132.005 449.014 131.382C449.172 130.758 449.252 130.005 449.252 129.121C449.252 128.248 449.172 127.5 449.014 126.877C448.866 126.253 448.657 125.743 448.385 125.347C448.113 124.95 447.795 124.661 447.433 124.48C447.07 124.287 446.679 124.191 446.26 124.191C445.852 124.191 445.466 124.287 445.104 124.48C444.752 124.661 444.441 124.95 444.169 125.347C443.897 125.743 443.681 126.253 443.523 126.877C443.364 127.5 443.285 128.248 443.285 129.121ZM452.859 122.44H457.925V135.819H455.239V124.514H452.859V122.44ZM463.772 135.819L466.356 131.161C465.925 131.263 465.444 131.314 464.911 131.314C464.322 131.314 463.755 131.2 463.211 130.974C462.678 130.747 462.208 130.435 461.8 130.039C461.392 129.642 461.069 129.177 460.831 128.645C460.593 128.101 460.474 127.517 460.474 126.894C460.474 126.146 460.61 125.477 460.882 124.888C461.165 124.287 461.545 123.783 462.021 123.375C462.508 122.967 463.081 122.655 463.738 122.44C464.407 122.213 465.126 122.1 465.897 122.1C466.543 122.1 467.172 122.207 467.784 122.423C468.396 122.638 468.94 122.944 469.416 123.341C469.892 123.726 470.272 124.196 470.555 124.752C470.838 125.296 470.98 125.908 470.98 126.588C470.98 127.177 470.884 127.715 470.691 128.203C470.51 128.679 470.289 129.16 470.028 129.648L466.56 135.819H463.772ZM465.778 129.223C466.209 129.223 466.588 129.155 466.917 129.019C467.246 128.883 467.518 128.701 467.733 128.475C467.96 128.248 468.124 127.982 468.226 127.676C468.339 127.358 468.396 127.03 468.396 126.69C468.396 126.35 468.334 126.027 468.209 125.721C468.096 125.415 467.926 125.148 467.699 124.922C467.484 124.684 467.212 124.497 466.883 124.361C466.566 124.225 466.197 124.157 465.778 124.157C465.359 124.157 464.985 124.225 464.656 124.361C464.339 124.497 464.067 124.684 463.84 124.922C463.625 125.148 463.455 125.415 463.33 125.721C463.217 126.027 463.16 126.35 463.16 126.69C463.16 127.03 463.211 127.358 463.313 127.676C463.426 127.982 463.591 128.248 463.806 128.475C464.033 128.701 464.31 128.883 464.639 129.019C464.968 129.155 465.347 129.223 465.778 129.223Z" fill="white"/>
<path d="M163.088 161.87V160.306L167.474 156.464C167.859 156.124 168.211 155.79 168.528 155.461C168.857 155.132 169.14 154.804 169.378 154.475C169.616 154.146 169.803 153.818 169.939 153.489C170.075 153.16 170.143 152.832 170.143 152.503C170.143 151.8 169.945 151.251 169.548 150.854C169.151 150.446 168.596 150.242 167.882 150.242C167.213 150.242 166.607 150.497 166.063 151.007C165.519 151.506 165.1 152.152 164.805 152.945L162.731 151.806C162.924 151.273 163.179 150.786 163.496 150.344C163.813 149.891 164.193 149.505 164.635 149.188C165.088 148.859 165.604 148.61 166.182 148.44C166.76 148.259 167.406 148.168 168.12 148.168C168.743 148.168 169.338 148.259 169.905 148.44C170.483 148.61 170.987 148.876 171.418 149.239C171.86 149.59 172.2 150.044 172.438 150.599C172.687 151.143 172.801 151.789 172.778 152.537C172.767 152.934 172.676 153.347 172.506 153.778C172.347 154.197 172.126 154.622 171.843 155.053C171.571 155.484 171.248 155.914 170.874 156.345C170.5 156.764 170.092 157.167 169.65 157.552L167.066 159.813H173.305V161.87H163.088ZM174.669 155.172C174.669 154.095 174.794 153.126 175.043 152.265C175.292 151.392 175.655 150.656 176.131 150.055C176.618 149.443 177.213 148.978 177.916 148.661C178.619 148.332 179.423 148.168 180.33 148.168C181.225 148.168 182.019 148.332 182.71 148.661C183.413 148.978 184.008 149.443 184.495 150.055C184.982 150.656 185.351 151.392 185.6 152.265C185.861 153.126 185.991 154.095 185.991 155.172C185.991 156.249 185.872 157.223 185.634 158.096C185.396 158.957 185.039 159.694 184.563 160.306C184.087 160.918 183.492 161.388 182.778 161.717C182.075 162.046 181.259 162.21 180.33 162.21C179.423 162.21 178.619 162.046 177.916 161.717C177.213 161.388 176.618 160.918 176.131 160.306C175.655 159.694 175.292 158.957 175.043 158.096C174.794 157.223 174.669 156.249 174.669 155.172ZM177.355 155.172C177.355 156.056 177.434 156.81 177.593 157.433C177.752 158.056 177.967 158.572 178.239 158.98C178.511 159.377 178.823 159.671 179.174 159.864C179.537 160.045 179.922 160.136 180.33 160.136C180.749 160.136 181.14 160.045 181.503 159.864C181.866 159.671 182.183 159.377 182.455 158.98C182.727 158.572 182.937 158.056 183.084 157.433C183.243 156.81 183.322 156.056 183.322 155.172C183.322 154.299 183.243 153.551 183.084 152.928C182.937 152.305 182.727 151.795 182.455 151.398C182.183 151.001 181.866 150.712 181.503 150.531C181.14 150.338 180.749 150.242 180.33 150.242C179.922 150.242 179.537 150.338 179.174 150.531C178.823 150.712 178.511 151.001 178.239 151.398C177.967 151.795 177.752 152.305 177.593 152.928C177.434 153.551 177.355 154.299 177.355 155.172ZM186.929 148.491H191.995V161.87H189.309V150.565H186.929V148.491ZM197.842 161.87L200.426 157.212C199.996 157.314 199.514 157.365 198.981 157.365C198.392 157.365 197.825 157.252 197.281 157.025C196.749 156.798 196.278 156.487 195.87 156.09C195.462 155.693 195.139 155.229 194.901 154.696C194.663 154.152 194.544 153.568 194.544 152.945C194.544 152.197 194.68 151.528 194.952 150.939C195.236 150.338 195.615 149.834 196.091 149.426C196.579 149.018 197.151 148.706 197.808 148.491C198.477 148.264 199.197 148.151 199.967 148.151C200.613 148.151 201.242 148.259 201.854 148.474C202.466 148.689 203.01 148.995 203.486 149.392C203.962 149.777 204.342 150.248 204.625 150.803C204.909 151.347 205.05 151.959 205.05 152.639C205.05 153.228 204.954 153.767 204.761 154.254C204.58 154.73 204.359 155.212 204.098 155.699L200.63 161.87H197.842ZM199.848 155.274C200.279 155.274 200.659 155.206 200.987 155.07C201.316 154.934 201.588 154.753 201.803 154.526C202.03 154.299 202.194 154.033 202.296 153.727C202.41 153.41 202.466 153.081 202.466 152.741C202.466 152.401 202.404 152.078 202.279 151.772C202.166 151.466 201.996 151.2 201.769 150.973C201.554 150.735 201.282 150.548 200.953 150.412C200.636 150.276 200.268 150.208 199.848 150.208C199.429 150.208 199.055 150.276 198.726 150.412C198.409 150.548 198.137 150.735 197.91 150.973C197.695 151.2 197.525 151.466 197.4 151.772C197.287 152.078 197.23 152.401 197.23 152.741C197.23 153.081 197.281 153.41 197.383 153.727C197.497 154.033 197.661 154.299 197.876 154.526C198.103 154.753 198.381 154.934 198.709 155.07C199.038 155.206 199.418 155.274 199.848 155.274Z" fill="white"/>
<path d="M531.088 13.87V12.306L535.474 8.464C535.859 8.124 536.211 7.78967 536.528 7.461C536.857 7.13233 537.14 6.80367 537.378 6.475C537.616 6.14633 537.803 5.81767 537.939 5.489C538.075 5.16033 538.143 4.83167 538.143 4.503C538.143 3.80033 537.945 3.25067 537.548 2.854C537.151 2.446 536.596 2.242 535.882 2.242C535.213 2.242 534.607 2.497 534.063 3.007C533.519 3.50567 533.1 4.15167 532.805 4.945L530.731 3.806C530.924 3.27333 531.179 2.786 531.496 2.344C531.813 1.89067 532.193 1.50533 532.635 1.188C533.088 0.859333 533.604 0.61 534.182 0.44C534.76 0.258666 535.406 0.167999 536.12 0.167999C536.743 0.167999 537.338 0.258666 537.905 0.44C538.483 0.61 538.987 0.876333 539.418 1.239C539.86 1.59033 540.2 2.04367 540.438 2.599C540.687 3.143 540.801 3.789 540.778 4.537C540.767 4.93367 540.676 5.34733 540.506 5.778C540.347 6.19733 540.126 6.62233 539.843 7.053C539.571 7.48367 539.248 7.91433 538.874 8.345C538.5 8.76433 538.092 9.16667 537.65 9.552L535.066 11.813H541.305V13.87H531.088ZM542.669 7.172C542.669 6.09533 542.794 5.12633 543.043 4.265C543.292 3.39233 543.655 2.65567 544.131 2.055C544.618 1.443 545.213 0.978332 545.916 0.660999C546.619 0.332333 547.423 0.167999 548.33 0.167999C549.225 0.167999 550.019 0.332333 550.71 0.660999C551.413 0.978332 552.008 1.443 552.495 2.055C552.982 2.65567 553.351 3.39233 553.6 4.265C553.861 5.12633 553.991 6.09533 553.991 7.172C553.991 8.24867 553.872 9.22333 553.634 10.096C553.396 10.9573 553.039 11.694 552.563 12.306C552.087 12.918 551.492 13.3883 550.778 13.717C550.075 14.0457 549.259 14.21 548.33 14.21C547.423 14.21 546.619 14.0457 545.916 13.717C545.213 13.3883 544.618 12.918 544.131 12.306C543.655 11.694 543.292 10.9573 543.043 10.096C542.794 9.22333 542.669 8.24867 542.669 7.172ZM545.355 7.172C545.355 8.056 545.434 8.80967 545.593 9.433C545.752 10.0563 545.967 10.572 546.239 10.98C546.511 11.3767 546.823 11.6713 547.174 11.864C547.537 12.0453 547.922 12.136 548.33 12.136C548.749 12.136 549.14 12.0453 549.503 11.864C549.866 11.6713 550.183 11.3767 550.455 10.98C550.727 10.572 550.937 10.0563 551.084 9.433C551.243 8.80967 551.322 8.056 551.322 7.172C551.322 6.29933 551.243 5.55133 551.084 4.928C550.937 4.30467 550.727 3.79467 550.455 3.398C550.183 3.00133 549.866 2.71233 549.503 2.531C549.14 2.33833 548.749 2.242 548.33 2.242C547.922 2.242 547.537 2.33833 547.174 2.531C546.823 2.71233 546.511 3.00133 546.239 3.398C545.967 3.79467 545.752 4.30467 545.593 4.928C545.434 5.55133 545.355 6.29933 545.355 7.172ZM555.409 13.87V12.306L559.795 8.464C560.181 8.124 560.532 7.78967 560.849 7.461C561.178 7.13233 561.461 6.80367 561.699 6.475C561.937 6.14633 562.124 5.81767 562.26 5.489C562.396 5.16033 562.464 4.83167 562.464 4.503C562.464 3.80033 562.266 3.25067 561.869 2.854C561.473 2.446 560.917 2.242 560.203 2.242C559.535 2.242 558.928 2.497 558.384 3.007C557.84 3.50567 557.421 4.15167 557.126 4.945L555.052 3.806C555.245 3.27333 555.5 2.786 555.817 2.344C556.135 1.89067 556.514 1.50533 556.956 1.188C557.41 0.859333 557.925 0.61 558.503 0.44C559.081 0.258666 559.727 0.167999 560.441 0.167999C561.065 0.167999 561.66 0.258666 562.226 0.44C562.804 0.61 563.309 0.876333 563.739 1.239C564.181 1.59033 564.521 2.04367 564.759 2.599C565.009 3.143 565.122 3.789 565.099 4.537C565.088 4.93367 564.997 5.34733 564.827 5.778C564.669 6.19733 564.448 6.62233 564.164 7.053C563.892 7.48367 563.569 7.91433 563.195 8.345C562.821 8.76433 562.413 9.16667 561.971 9.552L559.387 11.813H565.626V13.87H555.409ZM566.99 7.172C566.99 6.09533 567.115 5.12633 567.364 4.265C567.614 3.39233 567.976 2.65567 568.452 2.055C568.94 1.443 569.535 0.978332 570.237 0.660999C570.94 0.332333 571.745 0.167999 572.651 0.167999C573.547 0.167999 574.34 0.332333 575.031 0.660999C575.734 0.978332 576.329 1.443 576.816 2.055C577.304 2.65567 577.672 3.39233 577.921 4.265C578.182 5.12633 578.312 6.09533 578.312 7.172C578.312 8.24867 578.193 9.22333 577.955 10.096C577.717 10.9573 577.36 11.694 576.884 12.306C576.408 12.918 575.813 13.3883 575.099 13.717C574.397 14.0457 573.581 14.21 572.651 14.21C571.745 14.21 570.94 14.0457 570.237 13.717C569.535 13.3883 568.94 12.918 568.452 12.306C567.976 11.694 567.614 10.9573 567.364 10.096C567.115 9.22333 566.99 8.24867 566.99 7.172ZM569.676 7.172C569.676 8.056 569.756 8.80967 569.914 9.433C570.073 10.0563 570.288 10.572 570.56 10.98C570.832 11.3767 571.144 11.6713 571.495 11.864C571.858 12.0453 572.243 12.136 572.651 12.136C573.071 12.136 573.462 12.0453 573.824 11.864C574.187 11.6713 574.504 11.3767 574.776 10.98C575.048 10.572 575.258 10.0563 575.405 9.433C575.564 8.80967 575.643 8.056 575.643 7.172C575.643 6.29933 575.564 5.55133 575.405 4.928C575.258 4.30467 575.048 3.79467 574.776 3.398C574.504 3.00133 574.187 2.71233 573.824 2.531C573.462 2.33833 573.071 2.242 572.651 2.242C572.243 2.242 571.858 2.33833 571.495 2.531C571.144 2.71233 570.832 3.00133 570.56 3.398C570.288 3.79467 570.073 4.30467 569.914 4.928C569.756 5.55133 569.676 6.29933 569.676 7.172Z" fill="white"/>
<path d="M691.088 98.87V97.306L695.474 93.464C695.859 93.124 696.211 92.7897 696.528 92.461C696.857 92.1323 697.14 91.8037 697.378 91.475C697.616 91.1463 697.803 90.8177 697.939 90.489C698.075 90.1603 698.143 89.8317 698.143 89.503C698.143 88.8003 697.945 88.2507 697.548 87.854C697.151 87.446 696.596 87.242 695.882 87.242C695.213 87.242 694.607 87.497 694.063 88.007C693.519 88.5057 693.1 89.1517 692.805 89.945L690.731 88.806C690.924 88.2733 691.179 87.786 691.496 87.344C691.813 86.8907 692.193 86.5053 692.635 86.188C693.088 85.8593 693.604 85.61 694.182 85.44C694.76 85.2587 695.406 85.168 696.12 85.168C696.743 85.168 697.338 85.2587 697.905 85.44C698.483 85.61 698.987 85.8763 699.418 86.239C699.86 86.5903 700.2 87.0437 700.438 87.599C700.687 88.143 700.801 88.789 700.778 89.537C700.767 89.9337 700.676 90.3473 700.506 90.778C700.347 91.1973 700.126 91.6223 699.843 92.053C699.571 92.4837 699.248 92.9143 698.874 93.345C698.5 93.7643 698.092 94.1667 697.65 94.552L695.066 96.813H701.305V98.87H691.088ZM702.669 92.172C702.669 91.0953 702.794 90.1263 703.043 89.265C703.292 88.3923 703.655 87.6557 704.131 87.055C704.618 86.443 705.213 85.9783 705.916 85.661C706.619 85.3323 707.423 85.168 708.33 85.168C709.225 85.168 710.019 85.3323 710.71 85.661C711.413 85.9783 712.008 86.443 712.495 87.055C712.982 87.6557 713.351 88.3923 713.6 89.265C713.861 90.1263 713.991 91.0953 713.991 92.172C713.991 93.2487 713.872 94.2233 713.634 95.096C713.396 95.9573 713.039 96.694 712.563 97.306C712.087 97.918 711.492 98.3883 710.778 98.717C710.075 99.0457 709.259 99.21 708.33 99.21C707.423 99.21 706.619 99.0457 705.916 98.717C705.213 98.3883 704.618 97.918 704.131 97.306C703.655 96.694 703.292 95.9573 703.043 95.096C702.794 94.2233 702.669 93.2487 702.669 92.172ZM705.355 92.172C705.355 93.056 705.434 93.8097 705.593 94.433C705.752 95.0563 705.967 95.572 706.239 95.98C706.511 96.3767 706.823 96.6713 707.174 96.864C707.537 97.0453 707.922 97.136 708.33 97.136C708.749 97.136 709.14 97.0453 709.503 96.864C709.866 96.6713 710.183 96.3767 710.455 95.98C710.727 95.572 710.937 95.0563 711.084 94.433C711.243 93.8097 711.322 93.056 711.322 92.172C711.322 91.2993 711.243 90.5513 711.084 89.928C710.937 89.3047 710.727 88.7947 710.455 88.398C710.183 88.0013 709.866 87.7123 709.503 87.531C709.14 87.3383 708.749 87.242 708.33 87.242C707.922 87.242 707.537 87.3383 707.174 87.531C706.823 87.7123 706.511 88.0013 706.239 88.398C705.967 88.7947 705.752 89.3047 705.593 89.928C705.434 90.5513 705.355 91.2993 705.355 92.172ZM714.929 85.491H719.995V98.87H717.309V87.565H714.929V85.491ZM725.842 98.87L728.426 94.212C727.996 94.314 727.514 94.365 726.981 94.365C726.392 94.365 725.825 94.2517 725.281 94.025C724.749 93.7983 724.278 93.4867 723.87 93.09C723.462 92.6933 723.139 92.2287 722.901 91.696C722.663 91.152 722.544 90.5683 722.544 89.945C722.544 89.197 722.68 88.5283 722.952 87.939C723.236 87.3383 723.615 86.834 724.091 86.426C724.579 86.018 725.151 85.7063 725.808 85.491C726.477 85.2643 727.197 85.151 727.967 85.151C728.613 85.151 729.242 85.2587 729.854 85.474C730.466 85.6893 731.01 85.9953 731.486 86.392C731.962 86.7773 732.342 87.2477 732.625 87.803C732.909 88.347 733.05 88.959 733.05 89.639C733.05 90.2283 732.954 90.7667 732.761 91.254C732.58 91.73 732.359 92.2117 732.098 92.699L728.63 98.87H725.842ZM727.848 92.274C728.279 92.274 728.659 92.206 728.987 92.07C729.316 91.934 729.588 91.7527 729.803 91.526C730.03 91.2993 730.194 91.033 730.296 90.727C730.41 90.4097 730.466 90.081 730.466 89.741C730.466 89.401 730.404 89.078 730.279 88.772C730.166 88.466 729.996 88.1997 729.769 87.973C729.554 87.735 729.282 87.548 728.953 87.412C728.636 87.276 728.268 87.208 727.848 87.208C727.429 87.208 727.055 87.276 726.726 87.412C726.409 87.548 726.137 87.735 725.91 87.973C725.695 88.1997 725.525 88.466 725.4 88.772C725.287 89.078 725.23 89.401 725.23 89.741C725.23 90.081 725.281 90.4097 725.383 90.727C725.497 91.033 725.661 91.2993 725.876 91.526C726.103 91.7527 726.381 91.934 726.709 92.07C727.038 92.206 727.418 92.274 727.848 92.274Z" fill="white"/>
<path d="M795.088 78.87V77.306L799.474 73.464C799.859 73.124 800.211 72.7897 800.528 72.461C800.857 72.1323 801.14 71.8037 801.378 71.475C801.616 71.1463 801.803 70.8177 801.939 70.489C802.075 70.1603 802.143 69.8317 802.143 69.503C802.143 68.8003 801.945 68.2507 801.548 67.854C801.151 67.446 800.596 67.242 799.882 67.242C799.213 67.242 798.607 67.497 798.063 68.007C797.519 68.5057 797.1 69.1517 796.805 69.945L794.731 68.806C794.924 68.2733 795.179 67.786 795.496 67.344C795.813 66.8907 796.193 66.5053 796.635 66.188C797.088 65.8593 797.604 65.61 798.182 65.44C798.76 65.2587 799.406 65.168 800.12 65.168C800.743 65.168 801.338 65.2587 801.905 65.44C802.483 65.61 802.987 65.8763 803.418 66.239C803.86 66.5903 804.2 67.0437 804.438 67.599C804.687 68.143 804.801 68.789 804.778 69.537C804.767 69.9337 804.676 70.3473 804.506 70.778C804.347 71.1973 804.126 71.6223 803.843 72.053C803.571 72.4837 803.248 72.9143 802.874 73.345C802.5 73.7643 802.092 74.1667 801.65 74.552L799.066 76.813H805.305V78.87H795.088ZM806.669 72.172C806.669 71.0953 806.794 70.1263 807.043 69.265C807.292 68.3923 807.655 67.6557 808.131 67.055C808.618 66.443 809.213 65.9783 809.916 65.661C810.619 65.3323 811.423 65.168 812.33 65.168C813.225 65.168 814.019 65.3323 814.71 65.661C815.413 65.9783 816.008 66.443 816.495 67.055C816.982 67.6557 817.351 68.3923 817.6 69.265C817.861 70.1263 817.991 71.0953 817.991 72.172C817.991 73.2487 817.872 74.2233 817.634 75.096C817.396 75.9573 817.039 76.694 816.563 77.306C816.087 77.918 815.492 78.3883 814.778 78.717C814.075 79.0457 813.259 79.21 812.33 79.21C811.423 79.21 810.619 79.0457 809.916 78.717C809.213 78.3883 808.618 77.918 808.131 77.306C807.655 76.694 807.292 75.9573 807.043 75.096C806.794 74.2233 806.669 73.2487 806.669 72.172ZM809.355 72.172C809.355 73.056 809.434 73.8097 809.593 74.433C809.752 75.0563 809.967 75.572 810.239 75.98C810.511 76.3767 810.823 76.6713 811.174 76.864C811.537 77.0453 811.922 77.136 812.33 77.136C812.749 77.136 813.14 77.0453 813.503 76.864C813.866 76.6713 814.183 76.3767 814.455 75.98C814.727 75.572 814.937 75.0563 815.084 74.433C815.243 73.8097 815.322 73.056 815.322 72.172C815.322 71.2993 815.243 70.5513 815.084 69.928C814.937 69.3047 814.727 68.7947 814.455 68.398C814.183 68.0013 813.866 67.7123 813.503 67.531C813.14 67.3383 812.749 67.242 812.33 67.242C811.922 67.242 811.537 67.3383 811.174 67.531C810.823 67.7123 810.511 68.0013 810.239 68.398C809.967 68.7947 809.752 69.3047 809.593 69.928C809.434 70.5513 809.355 71.2993 809.355 72.172ZM819.409 78.87V77.306L823.795 73.464C824.181 73.124 824.532 72.7897 824.849 72.461C825.178 72.1323 825.461 71.8037 825.699 71.475C825.937 71.1463 826.124 70.8177 826.26 70.489C826.396 70.1603 826.464 69.8317 826.464 69.503C826.464 68.8003 826.266 68.2507 825.869 67.854C825.473 67.446 824.917 67.242 824.203 67.242C823.535 67.242 822.928 67.497 822.384 68.007C821.84 68.5057 821.421 69.1517 821.126 69.945L819.052 68.806C819.245 68.2733 819.5 67.786 819.817 67.344C820.135 66.8907 820.514 66.5053 820.956 66.188C821.41 65.8593 821.925 65.61 822.503 65.44C823.081 65.2587 823.727 65.168 824.441 65.168C825.065 65.168 825.66 65.2587 826.226 65.44C826.804 65.61 827.309 65.8763 827.739 66.239C828.181 66.5903 828.521 67.0437 828.759 67.599C829.009 68.143 829.122 68.789 829.099 69.537C829.088 69.9337 828.997 70.3473 828.827 70.778C828.669 71.1973 828.448 71.6223 828.164 72.053C827.892 72.4837 827.569 72.9143 827.195 73.345C826.821 73.7643 826.413 74.1667 825.971 74.552L823.387 76.813H829.626V78.87H819.409ZM830.99 72.172C830.99 71.0953 831.115 70.1263 831.364 69.265C831.614 68.3923 831.976 67.6557 832.452 67.055C832.94 66.443 833.535 65.9783 834.237 65.661C834.94 65.3323 835.745 65.168 836.651 65.168C837.547 65.168 838.34 65.3323 839.031 65.661C839.734 65.9783 840.329 66.443 840.816 67.055C841.304 67.6557 841.672 68.3923 841.921 69.265C842.182 70.1263 842.312 71.0953 842.312 72.172C842.312 73.2487 842.193 74.2233 841.955 75.096C841.717 75.9573 841.36 76.694 840.884 77.306C840.408 77.918 839.813 78.3883 839.099 78.717C838.397 79.0457 837.581 79.21 836.651 79.21C835.745 79.21 834.94 79.0457 834.237 78.717C833.535 78.3883 832.94 77.918 832.452 77.306C831.976 76.694 831.614 75.9573 831.364 75.096C831.115 74.2233 830.99 73.2487 830.99 72.172ZM833.676 72.172C833.676 73.056 833.756 73.8097 833.914 74.433C834.073 75.0563 834.288 75.572 834.56 75.98C834.832 76.3767 835.144 76.6713 835.495 76.864C835.858 77.0453 836.243 77.136 836.651 77.136C837.071 77.136 837.462 77.0453 837.824 76.864C838.187 76.6713 838.504 76.3767 838.776 75.98C839.048 75.572 839.258 75.0563 839.405 74.433C839.564 73.8097 839.643 73.056 839.643 72.172C839.643 71.2993 839.564 70.5513 839.405 69.928C839.258 69.3047 839.048 68.7947 838.776 68.398C838.504 68.0013 838.187 67.7123 837.824 67.531C837.462 67.3383 837.071 67.242 836.651 67.242C836.243 67.242 835.858 67.3383 835.495 67.531C835.144 67.7123 834.832 68.0013 834.56 68.398C834.288 68.7947 834.073 69.3047 833.914 69.928C833.756 70.5513 833.676 71.2993 833.676 72.172Z" fill="white"/>
<path d="M947.088 56.87V55.306L951.474 51.464C951.859 51.124 952.211 50.7897 952.528 50.461C952.857 50.1323 953.14 49.8037 953.378 49.475C953.616 49.1463 953.803 48.8177 953.939 48.489C954.075 48.1603 954.143 47.8317 954.143 47.503C954.143 46.8003 953.945 46.2507 953.548 45.854C953.151 45.446 952.596 45.242 951.882 45.242C951.213 45.242 950.607 45.497 950.063 46.007C949.519 46.5057 949.1 47.1517 948.805 47.945L946.731 46.806C946.924 46.2733 947.179 45.786 947.496 45.344C947.813 44.8907 948.193 44.5053 948.635 44.188C949.088 43.8593 949.604 43.61 950.182 43.44C950.76 43.2587 951.406 43.168 952.12 43.168C952.743 43.168 953.338 43.2587 953.905 43.44C954.483 43.61 954.987 43.8763 955.418 44.239C955.86 44.5903 956.2 45.0437 956.438 45.599C956.687 46.143 956.801 46.789 956.778 47.537C956.767 47.9337 956.676 48.3473 956.506 48.778C956.347 49.1973 956.126 49.6223 955.843 50.053C955.571 50.4837 955.248 50.9143 954.874 51.345C954.5 51.7643 954.092 52.1667 953.65 52.552L951.066 54.813H957.305V56.87H947.088ZM958.669 50.172C958.669 49.0953 958.794 48.1263 959.043 47.265C959.292 46.3923 959.655 45.6557 960.131 45.055C960.618 44.443 961.213 43.9783 961.916 43.661C962.619 43.3323 963.423 43.168 964.33 43.168C965.225 43.168 966.019 43.3323 966.71 43.661C967.413 43.9783 968.008 44.443 968.495 45.055C968.982 45.6557 969.351 46.3923 969.6 47.265C969.861 48.1263 969.991 49.0953 969.991 50.172C969.991 51.2487 969.872 52.2233 969.634 53.096C969.396 53.9573 969.039 54.694 968.563 55.306C968.087 55.918 967.492 56.3883 966.778 56.717C966.075 57.0457 965.259 57.21 964.33 57.21C963.423 57.21 962.619 57.0457 961.916 56.717C961.213 56.3883 960.618 55.918 960.131 55.306C959.655 54.694 959.292 53.9573 959.043 53.096C958.794 52.2233 958.669 51.2487 958.669 50.172ZM961.355 50.172C961.355 51.056 961.434 51.8097 961.593 52.433C961.752 53.0563 961.967 53.572 962.239 53.98C962.511 54.3767 962.823 54.6713 963.174 54.864C963.537 55.0453 963.922 55.136 964.33 55.136C964.749 55.136 965.14 55.0453 965.503 54.864C965.866 54.6713 966.183 54.3767 966.455 53.98C966.727 53.572 966.937 53.0563 967.084 52.433C967.243 51.8097 967.322 51.056 967.322 50.172C967.322 49.2993 967.243 48.5513 967.084 47.928C966.937 47.3047 966.727 46.7947 966.455 46.398C966.183 46.0013 965.866 45.7123 965.503 45.531C965.14 45.3383 964.749 45.242 964.33 45.242C963.922 45.242 963.537 45.3383 963.174 45.531C962.823 45.7123 962.511 46.0013 962.239 46.398C961.967 46.7947 961.752 47.3047 961.593 47.928C961.434 48.5513 961.355 49.2993 961.355 50.172ZM970.929 43.491H975.995V56.87H973.309V45.565H970.929V43.491ZM981.842 56.87L984.426 52.212C983.996 52.314 983.514 52.365 982.981 52.365C982.392 52.365 981.825 52.2517 981.281 52.025C980.749 51.7983 980.278 51.4867 979.87 51.09C979.462 50.6933 979.139 50.2287 978.901 49.696C978.663 49.152 978.544 48.5683 978.544 47.945C978.544 47.197 978.68 46.5283 978.952 45.939C979.236 45.3383 979.615 44.834 980.091 44.426C980.579 44.018 981.151 43.7063 981.808 43.491C982.477 43.2643 983.197 43.151 983.967 43.151C984.613 43.151 985.242 43.2587 985.854 43.474C986.466 43.6893 987.01 43.9953 987.486 44.392C987.962 44.7773 988.342 45.2477 988.625 45.803C988.909 46.347 989.05 46.959 989.05 47.639C989.05 48.2283 988.954 48.7667 988.761 49.254C988.58 49.73 988.359 50.2117 988.098 50.699L984.63 56.87H981.842ZM983.848 50.274C984.279 50.274 984.659 50.206 984.987 50.07C985.316 49.934 985.588 49.7527 985.803 49.526C986.03 49.2993 986.194 49.033 986.296 48.727C986.41 48.4097 986.466 48.081 986.466 47.741C986.466 47.401 986.404 47.078 986.279 46.772C986.166 46.466 985.996 46.1997 985.769 45.973C985.554 45.735 985.282 45.548 984.953 45.412C984.636 45.276 984.268 45.208 983.848 45.208C983.429 45.208 983.055 45.276 982.726 45.412C982.409 45.548 982.137 45.735 981.91 45.973C981.695 46.1997 981.525 46.466 981.4 46.772C981.287 47.078 981.23 47.401 981.23 47.741C981.23 48.081 981.281 48.4097 981.383 48.727C981.497 49.033 981.661 49.2993 981.876 49.526C982.103 49.7527 982.381 49.934 982.709 50.07C983.038 50.206 983.418 50.274 983.848 50.274Z" fill="white"/>
<path d="M1055.09 23.87V22.306L1059.47 18.464C1059.86 18.124 1060.21 17.7897 1060.53 17.461C1060.86 17.1323 1061.14 16.8037 1061.38 16.475C1061.62 16.1463 1061.8 15.8177 1061.94 15.489C1062.08 15.1603 1062.14 14.8317 1062.14 14.503C1062.14 13.8003 1061.94 13.2507 1061.55 12.854C1061.15 12.446 1060.6 12.242 1059.88 12.242C1059.21 12.242 1058.61 12.497 1058.06 13.007C1057.52 13.5057 1057.1 14.1517 1056.81 14.945L1054.73 13.806C1054.92 13.2733 1055.18 12.786 1055.5 12.344C1055.81 11.8907 1056.19 11.5053 1056.64 11.188C1057.09 10.8593 1057.6 10.61 1058.18 10.44C1058.76 10.2587 1059.41 10.168 1060.12 10.168C1060.74 10.168 1061.34 10.2587 1061.91 10.44C1062.48 10.61 1062.99 10.8763 1063.42 11.239C1063.86 11.5903 1064.2 12.0437 1064.44 12.599C1064.69 13.143 1064.8 13.789 1064.78 14.537C1064.77 14.9337 1064.68 15.3473 1064.51 15.778C1064.35 16.1973 1064.13 16.6223 1063.84 17.053C1063.57 17.4837 1063.25 17.9143 1062.87 18.345C1062.5 18.7643 1062.09 19.1667 1061.65 19.552L1059.07 21.813H1065.31V23.87H1055.09ZM1066.67 17.172C1066.67 16.0953 1066.79 15.1263 1067.04 14.265C1067.29 13.3923 1067.66 12.6557 1068.13 12.055C1068.62 11.443 1069.21 10.9783 1069.92 10.661C1070.62 10.3323 1071.42 10.168 1072.33 10.168C1073.23 10.168 1074.02 10.3323 1074.71 10.661C1075.41 10.9783 1076.01 11.443 1076.5 12.055C1076.98 12.6557 1077.35 13.3923 1077.6 14.265C1077.86 15.1263 1077.99 16.0953 1077.99 17.172C1077.99 18.2487 1077.87 19.2233 1077.63 20.096C1077.4 20.9573 1077.04 21.694 1076.56 22.306C1076.09 22.918 1075.49 23.3883 1074.78 23.717C1074.08 24.0457 1073.26 24.21 1072.33 24.21C1071.42 24.21 1070.62 24.0457 1069.92 23.717C1069.21 23.3883 1068.62 22.918 1068.13 22.306C1067.66 21.694 1067.29 20.9573 1067.04 20.096C1066.79 19.2233 1066.67 18.2487 1066.67 17.172ZM1069.36 17.172C1069.36 18.056 1069.43 18.8097 1069.59 19.433C1069.75 20.0563 1069.97 20.572 1070.24 20.98C1070.51 21.3767 1070.82 21.6713 1071.17 21.864C1071.54 22.0453 1071.92 22.136 1072.33 22.136C1072.75 22.136 1073.14 22.0453 1073.5 21.864C1073.87 21.6713 1074.18 21.3767 1074.46 20.98C1074.73 20.572 1074.94 20.0563 1075.08 19.433C1075.24 18.8097 1075.32 18.056 1075.32 17.172C1075.32 16.2993 1075.24 15.5513 1075.08 14.928C1074.94 14.3047 1074.73 13.7947 1074.46 13.398C1074.18 13.0013 1073.87 12.7123 1073.5 12.531C1073.14 12.3383 1072.75 12.242 1072.33 12.242C1071.92 12.242 1071.54 12.3383 1071.17 12.531C1070.82 12.7123 1070.51 13.0013 1070.24 13.398C1069.97 13.7947 1069.75 14.3047 1069.59 14.928C1069.43 15.5513 1069.36 16.2993 1069.36 17.172ZM1079.41 23.87V22.306L1083.8 18.464C1084.18 18.124 1084.53 17.7897 1084.85 17.461C1085.18 17.1323 1085.46 16.8037 1085.7 16.475C1085.94 16.1463 1086.12 15.8177 1086.26 15.489C1086.4 15.1603 1086.46 14.8317 1086.46 14.503C1086.46 13.8003 1086.27 13.2507 1085.87 12.854C1085.47 12.446 1084.92 12.242 1084.2 12.242C1083.53 12.242 1082.93 12.497 1082.38 13.007C1081.84 13.5057 1081.42 14.1517 1081.13 14.945L1079.05 13.806C1079.24 13.2733 1079.5 12.786 1079.82 12.344C1080.13 11.8907 1080.51 11.5053 1080.96 11.188C1081.41 10.8593 1081.93 10.61 1082.5 10.44C1083.08 10.2587 1083.73 10.168 1084.44 10.168C1085.06 10.168 1085.66 10.2587 1086.23 10.44C1086.8 10.61 1087.31 10.8763 1087.74 11.239C1088.18 11.5903 1088.52 12.0437 1088.76 12.599C1089.01 13.143 1089.12 13.789 1089.1 14.537C1089.09 14.9337 1089 15.3473 1088.83 15.778C1088.67 16.1973 1088.45 16.6223 1088.16 17.053C1087.89 17.4837 1087.57 17.9143 1087.2 18.345C1086.82 18.7643 1086.41 19.1667 1085.97 19.552L1083.39 21.813H1089.63V23.87H1079.41ZM1090.99 17.172C1090.99 16.0953 1091.12 15.1263 1091.36 14.265C1091.61 13.3923 1091.98 12.6557 1092.45 12.055C1092.94 11.443 1093.53 10.9783 1094.24 10.661C1094.94 10.3323 1095.74 10.168 1096.65 10.168C1097.55 10.168 1098.34 10.3323 1099.03 10.661C1099.73 10.9783 1100.33 11.443 1100.82 12.055C1101.3 12.6557 1101.67 13.3923 1101.92 14.265C1102.18 15.1263 1102.31 16.0953 1102.31 17.172C1102.31 18.2487 1102.19 19.2233 1101.96 20.096C1101.72 20.9573 1101.36 21.694 1100.88 22.306C1100.41 22.918 1099.81 23.3883 1099.1 23.717C1098.4 24.0457 1097.58 24.21 1096.65 24.21C1095.74 24.21 1094.94 24.0457 1094.24 23.717C1093.53 23.3883 1092.94 22.918 1092.45 22.306C1091.98 21.694 1091.61 20.9573 1091.36 20.096C1091.12 19.2233 1090.99 18.2487 1090.99 17.172ZM1093.68 17.172C1093.68 18.056 1093.76 18.8097 1093.91 19.433C1094.07 20.0563 1094.29 20.572 1094.56 20.98C1094.83 21.3767 1095.14 21.6713 1095.5 21.864C1095.86 22.0453 1096.24 22.136 1096.65 22.136C1097.07 22.136 1097.46 22.0453 1097.82 21.864C1098.19 21.6713 1098.5 21.3767 1098.78 20.98C1099.05 20.572 1099.26 20.0563 1099.41 19.433C1099.56 18.8097 1099.64 18.056 1099.64 17.172C1099.64 16.2993 1099.56 15.5513 1099.41 14.928C1099.26 14.3047 1099.05 13.7947 1098.78 13.398C1098.5 13.0013 1098.19 12.7123 1097.82 12.531C1097.46 12.3383 1097.07 12.242 1096.65 12.242C1096.24 12.242 1095.86 12.3383 1095.5 12.531C1095.14 12.7123 1094.83 13.0013 1094.56 13.398C1094.29 13.7947 1094.07 14.3047 1093.91 14.928C1093.76 15.5513 1093.68 16.2993 1093.68 17.172Z" fill="white"/>
<path d="M230.764 326.212V318.004H226.78V316.54H232.648V326.212H230.764ZM236.044 320.056H237.088V321.52H236.044V326.332H234.16V316.3H236.044V320.056ZM238.377 319.276C239.081 319.196 239.661 319.116 240.117 319.036C240.581 318.948 240.949 318.852 241.221 318.748C241.493 318.636 241.685 318.512 241.797 318.376C241.909 318.232 241.969 318.064 241.977 317.872H238.617V316.42H247.221V317.872H243.861C243.861 318.088 243.825 318.292 243.753 318.484L247.449 319.312L246.873 320.512L242.829 319.576C242.397 319.856 241.853 320.076 241.197 320.236C240.541 320.396 239.793 320.512 238.953 320.584L238.377 319.276ZM237.909 321.172H241.977V320.212H243.861V321.172H247.929V322.636H237.909V321.172ZM245.457 326.572V324.736H238.497V323.272H247.341V326.572H245.457ZM258.506 320.548H249.902V316.42H258.506V320.548ZM253.262 324.376V322.756H249.194V321.292H259.214V322.756H255.146V324.376H253.262ZM251.666 323.512V325.108H258.746V326.572H249.782V323.512H251.666ZM251.786 317.884V319.084H256.622V317.884H251.786ZM266.059 316.54V318.004H264.175V320.788C264.175 321.116 264.159 321.428 264.127 321.724C264.103 322.012 264.063 322.296 264.007 322.576L266.431 324.856L265.387 326.128L263.407 324.184C263.151 324.616 262.819 324.996 262.411 325.324C262.011 325.652 261.523 325.924 260.947 326.14L260.119 324.748C260.511 324.58 260.843 324.392 261.115 324.184C261.387 323.976 261.611 323.72 261.787 323.416C261.963 323.104 262.091 322.736 262.171 322.312C262.251 321.888 262.291 321.376 262.291 320.776V318.004H260.479V316.54H266.059ZM266.923 326.332V321.148L265.231 321.736V320.236L266.923 319.648V316.3H268.651V326.332H266.923ZM271.267 326.332H269.527V316.3H271.267V326.332Z" fill="white"/>
<path d="M451.856 334.812C451.104 334.812 450.432 334.768 449.84 334.68C449.248 334.592 448.744 334.456 448.328 334.272C447.92 334.088 447.608 333.86 447.392 333.588C447.176 333.316 447.068 332.992 447.068 332.616C447.068 332.248 447.176 331.928 447.392 331.656C447.608 331.376 447.92 331.148 448.328 330.972C448.744 330.788 449.248 330.652 449.84 330.564C450.432 330.476 451.104 330.432 451.856 330.432C452.608 330.432 453.28 330.476 453.872 330.564C454.464 330.652 454.964 330.788 455.372 330.972C455.788 331.148 456.104 331.376 456.32 331.656C456.536 331.928 456.644 332.248 456.644 332.616C456.644 332.992 456.536 333.316 456.32 333.588C456.104 333.86 455.788 334.088 455.372 334.272C454.964 334.456 454.464 334.592 453.872 334.68C453.28 334.768 452.608 334.812 451.856 334.812ZM453.284 324.42V325.884H450.836V326.46C450.836 326.556 450.832 326.652 450.824 326.748C450.816 326.836 450.804 326.924 450.788 327.012L453.464 328.62L452.564 329.892L450.104 328.416C449.496 329.112 448.492 329.62 447.092 329.94L446.288 328.62C446.728 328.524 447.112 328.416 447.44 328.296C447.776 328.176 448.056 328.032 448.28 327.864C448.504 327.696 448.672 327.496 448.784 327.264C448.896 327.032 448.952 326.76 448.952 326.448V325.884H446.624V324.42H453.284ZM456.404 324.3V330.252H454.52V327.516L453.02 327.852V326.352L454.52 326.016V324.3H456.404ZM451.856 333.348C452.776 333.348 453.488 333.292 453.992 333.18C454.504 333.068 454.76 332.88 454.76 332.616C454.76 332.352 454.504 332.164 453.992 332.052C453.488 331.94 452.776 331.884 451.856 331.884C450.936 331.884 450.22 331.94 449.708 332.052C449.204 332.164 448.952 332.352 448.952 332.616C448.952 332.88 449.204 333.068 449.708 333.18C450.22 333.292 450.936 333.348 451.856 333.348ZM462.241 326.58C462.241 326.86 462.209 327.148 462.145 327.444L464.941 329.16L463.969 330.408L461.413 328.836C461.101 329.196 460.693 329.512 460.189 329.784C459.693 330.048 459.089 330.26 458.377 330.42L457.573 329.1C458.517 328.9 459.217 328.604 459.673 328.212C460.129 327.812 460.357 327.264 460.357 326.568V324.276H462.241V326.58ZM460.453 331.152V333.12H467.809V334.572H458.569V331.152H460.453ZM467.689 324.3V331.464H465.805V324.3H467.689ZM471.738 331.152V333.12H479.094V334.572H469.854V331.152H471.738ZM469.35 325.884V324.42H475.218V330.312H473.334V325.884H469.35ZM478.974 324.3V331.464H477.09V327.804L475.578 328.152V326.652L477.09 326.304V324.3H478.974ZM485.531 334.812C484.811 334.812 484.163 334.768 483.587 334.68C483.019 334.592 482.535 334.456 482.135 334.272C481.743 334.088 481.443 333.86 481.235 333.588C481.027 333.316 480.923 332.992 480.923 332.616C480.923 332.248 481.027 331.928 481.235 331.656C481.443 331.376 481.743 331.148 482.135 330.972C482.535 330.788 483.019 330.652 483.587 330.564C484.163 330.476 484.811 330.432 485.531 330.432C486.251 330.432 486.895 330.476 487.463 330.564C488.039 330.652 488.523 330.788 488.915 330.972C489.315 331.148 489.619 331.376 489.827 331.656C490.035 331.928 490.139 332.248 490.139 332.616C490.139 332.992 490.035 333.316 489.827 333.588C489.619 333.86 489.315 334.088 488.915 334.272C488.523 334.456 488.039 334.592 487.463 334.68C486.895 334.768 486.251 334.812 485.531 334.812ZM480.635 325.884V324.42H486.503V329.832H484.619V325.884H480.635ZM489.899 327.648V330.132H488.015V324.3H489.899V326.184H490.943V327.648H489.899ZM485.531 333.348C486.387 333.348 487.055 333.292 487.535 333.18C488.015 333.068 488.255 332.88 488.255 332.616C488.255 332.352 488.015 332.164 487.535 332.052C487.055 331.94 486.387 331.884 485.531 331.884C484.675 331.884 484.007 331.94 483.527 332.052C483.047 332.164 482.807 332.352 482.807 332.616C482.807 332.88 483.047 333.068 483.527 333.18C484.007 333.292 484.675 333.348 485.531 333.348Z" fill="white"/>
<path d="M742.768 323.544C743.808 323.544 744.584 323.724 745.096 324.084C745.616 324.444 745.876 324.936 745.876 325.56C745.876 326.2 745.616 326.696 745.096 327.048C744.584 327.392 743.808 327.564 742.768 327.564C741.744 327.564 740.972 327.392 740.452 327.048C739.94 326.696 739.684 326.2 739.684 325.56C739.684 324.936 739.94 324.444 740.452 324.084C740.972 323.724 741.744 323.544 742.768 323.544ZM747.16 331.572V329.724H740.284V328.272H749.044V331.572H747.16ZM749.044 325.008V327.732H747.16V321.3H749.044V323.544H750.088V325.008H749.044ZM743.716 321.66H746.164V323.124H739.384V321.66H741.832V320.784H743.716V321.66ZM742.768 324.816C742.432 324.816 742.148 324.876 741.916 324.996C741.684 325.116 741.568 325.304 741.568 325.56C741.568 325.816 741.684 326.004 741.916 326.124C742.148 326.244 742.432 326.304 742.768 326.304C742.928 326.304 743.08 326.288 743.224 326.256C743.376 326.224 743.508 326.18 743.62 326.124C743.732 326.06 743.82 325.984 743.884 325.896C743.956 325.8 743.992 325.688 743.992 325.56C743.992 325.432 743.956 325.32 743.884 325.224C743.82 325.128 743.728 325.052 743.608 324.996C743.496 324.932 743.364 324.888 743.212 324.864C743.068 324.832 742.92 324.816 742.768 324.816ZM750.705 323.952C750.705 323.552 750.781 323.188 750.933 322.86C751.093 322.532 751.313 322.252 751.593 322.02C751.881 321.788 752.229 321.612 752.637 321.492C753.045 321.364 753.501 321.3 754.005 321.3C754.837 321.3 755.529 321.468 756.081 321.804C756.633 322.132 757.001 322.584 757.185 323.16L758.805 322.788V321.3H760.689V326.7H758.805V324.288L757.209 324.648C757.049 325.248 756.689 325.724 756.129 326.076C755.569 326.42 754.861 326.592 754.005 326.592C753.501 326.592 753.045 326.528 752.637 326.4C752.229 326.272 751.881 326.096 751.593 325.872C751.313 325.64 751.093 325.364 750.933 325.044C750.781 324.716 750.705 324.352 750.705 323.952ZM753.453 327.24V327.948H758.805V327.24H760.689V331.572H751.569V327.24H753.453ZM754.005 325.128C754.413 325.128 754.749 325.02 755.013 324.804C755.285 324.588 755.421 324.304 755.421 323.952C755.421 323.592 755.285 323.304 755.013 323.088C754.749 322.872 754.413 322.764 754.005 322.764C753.597 322.764 753.257 322.872 752.985 323.088C752.721 323.304 752.589 323.592 752.589 323.952C752.589 324.304 752.721 324.588 752.985 324.804C753.257 325.02 753.597 325.128 754.005 325.128ZM758.805 330.12V329.4H753.453V330.12H758.805ZM769.094 321.42V322.884H766.526V323.94C766.526 324.036 766.522 324.128 766.514 324.216C766.506 324.304 766.494 324.392 766.478 324.48L769.274 326.1L768.374 327.372L765.77 325.872C765.122 326.584 764.086 327.1 762.662 327.42L761.858 326.1C762.298 326.004 762.69 325.896 763.034 325.776C763.378 325.656 763.67 325.512 763.91 325.344C764.15 325.176 764.33 324.976 764.45 324.744C764.578 324.512 764.642 324.24 764.642 323.928V322.884H762.194V321.42H769.094ZM764.738 328.152V330.12H772.094V331.572H762.854V328.152H764.738ZM771.974 321.3V328.464H770.09V321.3H771.974ZM774.067 323.004V321.54H783.151V325.62H775.951V326.784H783.271V328.248H779.431V329.868H783.499V331.332H773.479V329.868H777.547V328.248H774.067V324.156H781.267V323.004H774.067Z" fill="white"/>
</svg>
