<svg width="1157" height="353" viewBox="0 0 1157 353" fill="none" xmlns="http://www.w3.org/2000/svg">
<path d="M112.582 292.45H1148.34" stroke="white"/>
<path d="M112.582 15.65V292.45" stroke="white"/>
<path d="M102.188 292.45H112.58" stroke="white"/>
<path d="M89.7782 283.809C89.1361 283.809 88.5892 283.635 88.1375 283.285C87.6858 282.933 87.3407 282.423 87.102 281.755C86.8634 281.085 86.7441 280.275 86.7441 279.326C86.7441 278.383 86.8634 277.578 87.102 276.91C87.3435 276.24 87.6901 275.728 88.1418 275.376C88.5963 275.021 89.1418 274.843 89.7782 274.843C90.4145 274.843 90.9586 275.021 91.4103 275.376C91.8648 275.728 92.2114 276.24 92.45 276.91C92.6915 277.578 92.8123 278.383 92.8123 279.326C92.8123 280.275 92.6929 281.085 92.4543 281.755C92.2157 282.423 91.8705 282.933 91.4188 283.285C90.9671 283.635 90.4202 283.809 89.7782 283.809ZM89.7782 282.872C90.4145 282.872 90.9088 282.565 91.2611 281.951C91.6134 281.338 91.7895 280.463 91.7895 279.326C91.7895 278.571 91.7086 277.927 91.5466 277.396C91.3875 276.865 91.1574 276.46 90.8563 276.182C90.558 275.903 90.1986 275.764 89.7782 275.764C89.1475 275.764 88.6546 276.075 88.2995 276.697C87.9444 277.316 87.7668 278.193 87.7668 279.326C87.7668 280.082 87.8463 280.724 88.0054 281.253C88.1645 281.781 88.3932 282.183 88.6915 282.459C88.9927 282.734 89.3549 282.872 89.7782 282.872Z" fill="white"/>
<path d="M97.6914 219.543H112.735" stroke="white"/>
<path d="M71.4925 210.783V210.016L74.3732 206.863C74.7113 206.493 74.9897 206.172 75.2084 205.899C75.4272 205.624 75.5891 205.365 75.6942 205.124C75.8022 204.88 75.8562 204.624 75.8562 204.357C75.8562 204.05 75.7823 203.784 75.6346 203.56C75.4897 203.336 75.2908 203.162 75.038 203.04C74.7851 202.918 74.5011 202.857 74.1857 202.857C73.8505 202.857 73.5579 202.926 73.3079 203.066C73.0607 203.202 72.869 203.394 72.7326 203.641C72.5991 203.888 72.5323 204.178 72.5323 204.51H71.5266C71.5266 203.999 71.6445 203.55 71.8803 203.164C72.1161 202.777 72.4371 202.476 72.8434 202.26C73.2525 202.044 73.7113 201.936 74.2198 201.936C74.7312 201.936 75.1843 202.044 75.5792 202.26C75.9741 202.476 76.2837 202.767 76.5082 203.134C76.7326 203.5 76.8448 203.908 76.8448 204.357C76.8448 204.678 76.7866 204.992 76.6701 205.299C76.5565 205.603 76.3576 205.942 76.0735 206.317C75.7922 206.689 75.4016 207.144 74.9016 207.681L72.9414 209.777V209.845H76.9982V210.783H71.4925ZM81.4854 210.902C80.9854 210.902 80.5351 210.803 80.1346 210.604C79.734 210.405 79.413 210.132 79.1715 209.786C78.93 209.439 78.7979 209.044 78.7752 208.601H79.7979C79.8377 208.996 80.0167 209.323 80.3349 209.581C80.6559 209.837 81.0394 209.965 81.4854 209.965C81.8434 209.965 82.1616 209.881 82.44 209.713C82.7212 209.546 82.9414 209.316 83.1005 209.023C83.2624 208.728 83.3434 208.394 83.3434 208.022C83.3434 207.641 83.2596 207.301 83.092 207.003C82.9272 206.702 82.6999 206.465 82.4101 206.291C82.1204 206.118 81.7894 206.03 81.4172 206.027C81.1502 206.024 80.8761 206.066 80.5948 206.151C80.3136 206.233 80.082 206.34 79.9002 206.47L78.9116 206.351L79.44 202.056H83.9741V202.993H80.3263L80.0195 205.567H80.0707C80.2496 205.425 80.4741 205.307 80.744 205.213C81.0138 205.12 81.2951 205.073 81.5877 205.073C82.1218 205.073 82.5976 205.201 83.0153 205.456C83.4357 205.709 83.7653 206.056 84.0039 206.496C84.2454 206.936 84.3661 207.439 84.3661 208.005C84.3661 208.561 84.2411 209.059 83.9911 209.496C83.744 209.931 83.403 210.274 82.9684 210.527C82.5337 210.777 82.0394 210.902 81.4854 210.902Z" fill="white"/>
<path d="M98.6797 154.05H112.926" stroke="white"/>
<path d="M75.0683 151.588C74.5683 151.588 74.118 151.489 73.7174 151.29C73.3169 151.091 72.9959 150.818 72.7544 150.471C72.5129 150.125 72.3808 149.73 72.3581 149.287H73.3808C73.4206 149.682 73.5996 150.008 73.9177 150.267C74.2388 150.523 74.6223 150.65 75.0683 150.65C75.4263 150.65 75.7444 150.567 76.0228 150.399C76.3041 150.231 76.5243 150.001 76.6834 149.709C76.8453 149.413 76.9263 149.079 76.9263 148.707C76.9263 148.327 76.8424 147.987 76.6748 147.689C76.5101 147.388 76.2828 147.15 75.993 146.977C75.7032 146.804 75.3723 146.716 75.0001 146.713C74.7331 146.71 74.4589 146.751 74.1777 146.837C73.8964 146.919 73.6649 147.025 73.4831 147.156L72.4944 147.037L73.0228 142.741H77.5569V143.679H73.9092L73.6024 146.253H73.6535C73.8325 146.111 74.0569 145.993 74.3268 145.899C74.5967 145.805 74.878 145.758 75.1706 145.758C75.7047 145.758 76.1805 145.886 76.5981 146.142C77.0186 146.395 77.3481 146.741 77.5868 147.182C77.8282 147.622 77.949 148.125 77.949 148.69C77.949 149.247 77.824 149.744 77.574 150.182C77.3268 150.616 76.9859 150.96 76.5513 151.213C76.1166 151.463 75.6223 151.588 75.0683 151.588ZM82.4884 151.588C81.8464 151.588 81.2995 151.413 80.8478 151.064C80.3961 150.712 80.0509 150.202 79.8123 149.534C79.5736 148.864 79.4543 148.054 79.4543 147.105C79.4543 146.162 79.5736 145.356 79.8123 144.689C80.0537 144.018 80.4003 143.507 80.852 143.155C81.3066 142.8 81.852 142.622 82.4884 142.622C83.1248 142.622 83.6688 142.8 84.1205 143.155C84.575 143.507 84.9216 144.018 85.1603 144.689C85.4018 145.356 85.5225 146.162 85.5225 147.105C85.5225 148.054 85.4032 148.864 85.1645 149.534C84.9259 150.202 84.5807 150.712 84.129 151.064C83.6773 151.413 83.1304 151.588 82.4884 151.588ZM82.4884 150.65C83.1248 150.65 83.6191 150.344 83.9714 149.73C84.3236 149.116 84.4998 148.241 84.4998 147.105C84.4998 146.349 84.4188 145.706 84.2569 145.175C84.0978 144.643 83.8677 144.239 83.5665 143.96C83.2682 143.682 82.9089 143.542 82.4884 143.542C81.8577 143.542 81.3648 143.854 81.0097 144.476C80.6546 145.095 80.477 145.971 80.477 147.105C80.477 147.861 80.5566 148.503 80.7157 149.031C80.8748 149.56 81.1035 149.962 81.4018 150.237C81.7029 150.513 82.0651 150.65 82.4884 150.65Z" fill="white"/>
<path d="M97.2344 91.0286H112.735" stroke="white"/>
<path d="M71.4551 82.2686L75.3585 74.547V74.4788H70.8585V73.5413H76.4494V74.5299L72.5631 82.2686H71.4551ZM80.6479 82.3879C80.1479 82.3879 79.6977 82.2884 79.2971 82.0896C78.8965 81.8907 78.5755 81.618 78.334 81.2714C78.0925 80.9248 77.9604 80.5299 77.9377 80.0867H78.9604C79.0002 80.4816 79.1792 80.8083 79.4974 81.0669C79.8184 81.3225 80.2019 81.4504 80.6479 81.4504C81.0059 81.4504 81.3241 81.3666 81.6025 81.199C81.8837 81.0313 82.1039 80.8012 82.263 80.5086C82.4249 80.2132 82.5059 79.8794 82.5059 79.5072C82.5059 79.1265 82.4221 78.787 82.2545 78.4887C82.0897 78.1876 81.8624 77.9504 81.5727 77.7771C81.2829 77.6038 80.9519 77.5157 80.5798 77.5129C80.3127 77.51 80.0386 77.5512 79.7573 77.6365C79.4761 77.7188 79.2445 77.8254 79.0627 77.9561L78.0741 77.8367L78.6025 73.5413H83.1366V74.4788H79.4889L79.182 77.0526H79.2332C79.4121 76.9106 79.6366 76.7927 79.9065 76.699C80.1764 76.6052 80.4576 76.5583 80.7502 76.5583C81.2843 76.5583 81.7602 76.6862 82.1778 76.9418C82.5982 77.1947 82.9278 77.5413 83.1664 77.9816C83.4079 78.422 83.5286 78.9248 83.5286 79.4901C83.5286 80.047 83.4036 80.5441 83.1536 80.9816C82.9065 81.4163 82.5656 81.76 82.1309 82.0129C81.6962 82.2629 81.2019 82.3879 80.6479 82.3879Z" fill="white"/>
<path d="M102.488 15.65H112.927" stroke="white"/>
<path d="M82.7344 4.34133V13.0686H81.6775V5.44929H81.6264L79.4957 6.86406V5.79019L81.6775 4.34133H82.7344ZM88.0909 13.1879C87.4488 13.1879 86.902 13.0132 86.4503 12.6638C85.9986 12.3115 85.6534 11.8016 85.4148 11.1339C85.1761 10.4635 85.0568 9.65383 85.0568 8.70497C85.0568 7.76179 85.1761 6.95639 85.4148 6.28877C85.6562 5.61832 86.0028 5.10696 86.4545 4.75468C86.9091 4.39957 87.4545 4.22201 88.0909 4.22201C88.7273 4.22201 89.2713 4.39957 89.723 4.75468C90.1775 5.10696 90.5241 5.61832 90.7628 6.28877C91.0042 6.95639 91.125 7.76179 91.125 8.70497C91.125 9.65383 91.0057 10.4635 90.767 11.1339C90.5284 11.8016 90.1832 12.3115 89.7315 12.6638C89.2798 13.0132 88.7329 13.1879 88.0909 13.1879ZM88.0909 12.2504C88.7273 12.2504 89.2216 11.9436 89.5738 11.33C89.9261 10.7163 90.1023 9.84133 90.1023 8.70497C90.1023 7.94929 90.0213 7.30582 89.8594 6.77457C89.7003 6.24332 89.4702 5.83849 89.169 5.56008C88.8707 5.28167 88.5113 5.14247 88.0909 5.14247C87.4602 5.14247 86.9673 5.45355 86.6122 6.07571C86.2571 6.69502 86.0795 7.57144 86.0795 8.70497C86.0795 9.46065 86.1591 10.1027 86.3182 10.6311C86.4773 11.1595 86.7059 11.5615 87.0042 11.8371C87.3054 12.1126 87.6676 12.2504 88.0909 12.2504ZM95.5909 13.1879C94.9488 13.1879 94.402 13.0132 93.9503 12.6638C93.4986 12.3115 93.1534 11.8016 92.9148 11.1339C92.6761 10.4635 92.5568 9.65383 92.5568 8.70497C92.5568 7.76179 92.6761 6.95639 92.9148 6.28877C93.1562 5.61832 93.5028 5.10696 93.9545 4.75468C94.4091 4.39957 94.9545 4.22201 95.5909 4.22201C96.2273 4.22201 96.7713 4.39957 97.223 4.75468C97.6775 5.10696 98.0241 5.61832 98.2628 6.28877C98.5042 6.95639 98.625 7.76179 98.625 8.70497C98.625 9.65383 98.5057 10.4635 98.267 11.1339C98.0284 11.8016 97.6832 12.3115 97.2315 12.6638C96.7798 13.0132 96.2329 13.1879 95.5909 13.1879ZM95.5909 12.2504C96.2273 12.2504 96.7216 11.9436 97.0738 11.33C97.4261 10.7163 97.6023 9.84133 97.6023 8.70497C97.6023 7.94929 97.5213 7.30582 97.3594 6.77457C97.2003 6.24332 96.9702 5.83849 96.669 5.56008C96.3707 5.28167 96.0113 5.14247 95.5909 5.14247C94.9602 5.14247 94.4673 5.45355 94.1122 6.07571C93.7571 6.69502 93.5795 7.57144 93.5795 8.70497C93.5795 9.46065 93.6591 10.1027 93.8182 10.6311C93.9773 11.1595 94.2059 11.5615 94.5042 11.8371C94.8054 12.1126 95.1676 12.2504 95.5909 12.2504Z" fill="white"/>
<path d="M245.191 61.2175H343.917V290.962H245.191V61.2175Z" fill="#0043B9"/>
<path d="M397.414 171.894H496.14V290.918H397.414V171.894Z" fill="#33D8FE"/>
<path d="M136 171.894H234.726V290.918H136V171.894Z" fill="#33D8FE"/>
<path d="M656.352 115.743H755.078V290.918H656.352V115.743Z" fill="#53DAF9"/>
<path d="M915.293 77.7817H1014.02V290.918H915.293V77.7817Z" fill="#53DAF9"/>
<path d="M503.07 30.7257H601.796V290.918H503.07V30.7257Z" fill="#0043B9"/>
<path d="M762.008 101.903H860.734V290.918H762.008V101.903Z" fill="#0043B9"/>
<path d="M1020.95 50.1017H1119.68V290.918H1020.95V50.1017Z" fill="#0043B9"/>
<path d="M1011.84 317.088V327.936H1012.8V317.088H1011.84ZM1010.01 321.432V322.26H1012.1V321.432H1010.01ZM1009.38 317.328V327.384H1010.32V317.328H1009.38ZM1003.98 324.432V325.26H1004.69C1006.32 325.26 1007.42 325.212 1008.71 324.936L1008.62 324.108C1007.36 324.372 1006.28 324.432 1004.69 324.432H1003.98ZM1003.98 318.408V324.804H1004.97V319.224H1008.02V318.408H1003.98ZM1022.52 317.1V325.02H1023.53V317.1H1022.52ZM1016.56 326.88V327.696H1023.86V326.88H1016.56ZM1016.56 324.204V327.156H1017.54V324.204H1016.56ZM1017.71 317.844C1016.09 317.844 1014.88 318.948 1014.88 320.52C1014.88 322.08 1016.09 323.196 1017.71 323.196C1019.33 323.196 1020.53 322.08 1020.53 320.52C1020.53 318.948 1019.33 317.844 1017.71 317.844ZM1017.71 318.708C1018.77 318.708 1019.57 319.452 1019.57 320.52C1019.57 321.576 1018.77 322.32 1017.71 322.32C1016.66 322.32 1015.85 321.576 1015.85 320.52C1015.85 319.452 1016.66 318.708 1017.71 318.708ZM1026.25 317.928V318.744H1031.05V317.928H1026.25ZM1027.89 320.352V323.064H1028.87V320.352H1027.89ZM1030.66 317.928V318.504C1030.66 319.2 1030.66 320.184 1030.38 321.612L1031.35 321.72C1031.64 320.292 1031.64 319.212 1031.64 318.504V317.928H1030.66ZM1033.12 317.088V325.26H1034.11V317.088H1033.12ZM1033.66 320.616V321.444H1035.66V320.616H1033.66ZM1027.26 326.88V327.696H1034.46V326.88H1027.26ZM1027.26 324.504V327.132H1028.25V324.504H1027.26ZM1025.7 323.532C1027.61 323.532 1030.2 323.484 1032.46 323.088L1032.39 322.368C1030.19 322.668 1027.53 322.716 1025.59 322.716L1025.7 323.532ZM1040.92 320.1V320.904H1043.33V320.1H1040.92ZM1040.83 322.824V323.628H1043.31V322.824H1040.83ZM1044.97 317.088V327.936H1045.93V317.088H1044.97ZM1042.8 317.364V327.384H1043.74V317.364H1042.8ZM1040.38 318.456V318.636C1040.38 321.192 1039.24 323.352 1036.71 324.888L1037.28 325.596C1040.2 323.856 1041.34 321.3 1041.34 318.456H1040.38ZM1037.19 318.456V319.272H1040.77V318.456H1037.19Z" fill="white"/>
<path d="M272.697 44.15C273.298 43.572 273.757 43.1357 274.074 42.841C275.196 41.7643 276.018 40.9427 276.539 40.376C277.06 39.8093 277.468 39.2257 277.763 38.625C278.069 38.0243 278.222 37.3727 278.222 36.67C278.222 35.854 278.007 35.225 277.576 34.783C277.157 34.341 276.635 34.12 276.012 34.12C275.321 34.12 274.72 34.3693 274.21 34.868C273.711 35.3667 273.377 36.0807 273.207 37.01H272.867C272.867 36.4433 272.89 35.9957 272.935 35.667C272.98 35.327 273.094 35.038 273.275 34.8C273.592 34.4147 274.046 34.0917 274.635 33.831C275.236 33.5703 275.865 33.44 276.522 33.44C277.417 33.44 278.205 33.678 278.885 34.154C279.576 34.6187 279.922 35.4573 279.922 36.67C279.922 37.384 279.752 38.0527 279.412 38.676C279.083 39.2993 278.653 39.883 278.12 40.427C277.599 40.9597 276.856 41.651 275.893 42.501C274.896 43.3963 274.227 44.0027 273.887 44.32H277.712C278.403 44.32 278.93 44.1727 279.293 43.878C279.656 43.5833 279.837 43.1357 279.837 42.535H280.177V43.64C280.177 44.5467 279.695 45 278.732 45H272.697V44.15ZM285.979 45.34C283.259 45.34 281.899 43.3567 281.899 39.39C281.899 35.4233 283.259 33.44 285.979 33.44C288.699 33.44 290.059 35.4233 290.059 39.39C290.059 43.3567 288.699 45.34 285.979 45.34ZM285.979 44.66C286.591 44.66 287.067 44.473 287.407 44.099C287.758 43.725 288.002 43.1583 288.138 42.399C288.285 41.6283 288.359 40.6253 288.359 39.39C288.359 38.1547 288.285 37.1573 288.138 36.398C288.002 35.6273 287.758 35.055 287.407 34.681C287.067 34.307 286.591 34.12 285.979 34.12C285.367 34.12 284.885 34.307 284.534 34.681C284.194 35.055 283.95 35.6273 283.803 36.398C283.667 37.1573 283.599 38.1547 283.599 39.39C283.599 40.6253 283.667 41.6283 283.803 42.399C283.95 43.1583 284.194 43.725 284.534 44.099C284.885 44.473 285.367 44.66 285.979 44.66ZM291.639 44.15C292.24 43.572 292.699 43.1357 293.016 42.841C294.138 41.7643 294.96 40.9427 295.481 40.376C296.003 39.8093 296.411 39.2257 296.705 38.625C297.011 38.0243 297.164 37.3727 297.164 36.67C297.164 35.854 296.949 35.225 296.518 34.783C296.099 34.341 295.578 34.12 294.954 34.12C294.263 34.12 293.662 34.3693 293.152 34.868C292.654 35.3667 292.319 36.0807 292.149 37.01H291.809C291.809 36.4433 291.832 35.9957 291.877 35.667C291.923 35.327 292.036 35.038 292.217 34.8C292.535 34.4147 292.988 34.0917 293.577 33.831C294.178 33.5703 294.807 33.44 295.464 33.44C296.36 33.44 297.147 33.678 297.827 34.154C298.519 34.6187 298.864 35.4573 298.864 36.67C298.864 37.384 298.694 38.0527 298.354 38.676C298.026 39.2993 297.595 39.883 297.062 40.427C296.541 40.9597 295.799 41.651 294.835 42.501C293.838 43.3963 293.169 44.0027 292.829 44.32H296.654C297.346 44.32 297.873 44.1727 298.235 43.878C298.598 43.5833 298.779 43.1357 298.779 42.535H299.119V43.64C299.119 44.5467 298.638 45 297.674 45H291.639V44.15ZM304.921 45.34C302.201 45.34 300.841 43.3567 300.841 39.39C300.841 35.4233 302.201 33.44 304.921 33.44C307.641 33.44 309.001 35.4233 309.001 39.39C309.001 43.3567 307.641 45.34 304.921 45.34ZM304.921 44.66C305.533 44.66 306.009 44.473 306.349 44.099C306.7 43.725 306.944 43.1583 307.08 42.399C307.227 41.6283 307.301 40.6253 307.301 39.39C307.301 38.1547 307.227 37.1573 307.08 36.398C306.944 35.6273 306.7 35.055 306.349 34.681C306.009 34.307 305.533 34.12 304.921 34.12C304.309 34.12 303.827 34.307 303.476 34.681C303.136 35.055 302.892 35.6273 302.745 36.398C302.609 37.1573 302.541 38.1547 302.541 39.39C302.541 40.6253 302.609 41.6283 302.745 42.399C302.892 43.1583 303.136 43.725 303.476 44.099C303.827 44.473 304.309 44.66 304.921 44.66Z" fill="white"/>
<path d="M428.627 133.099C429.227 132.521 429.686 132.084 430.004 131.79C431.126 130.713 431.947 129.891 432.469 129.325C432.99 128.758 433.398 128.174 433.693 127.574C433.999 126.973 434.152 126.321 434.152 125.619C434.152 124.803 433.936 124.174 433.506 123.732C433.086 123.29 432.565 123.069 431.942 123.069C431.25 123.069 430.65 123.318 430.14 123.817C429.641 124.315 429.307 125.029 429.137 125.959H428.797C428.797 125.392 428.819 124.944 428.865 124.616C428.91 124.276 429.023 123.987 429.205 123.749C429.522 123.363 429.975 123.04 430.565 122.78C431.165 122.519 431.794 122.389 432.452 122.389C433.347 122.389 434.135 122.627 434.815 123.103C435.506 123.567 435.852 124.406 435.852 125.619C435.852 126.333 435.682 127.001 435.342 127.625C435.013 128.248 434.582 128.832 434.05 129.376C433.528 129.908 432.786 130.6 431.823 131.45C430.825 132.345 430.157 132.951 429.817 133.269H433.642C434.333 133.269 434.86 133.121 435.223 132.827C435.585 132.532 435.767 132.084 435.767 131.484H436.107V132.589C436.107 133.495 435.625 133.949 434.662 133.949H428.627V133.099ZM441.908 134.289C439.188 134.289 437.828 132.305 437.828 128.339C437.828 124.372 439.188 122.389 441.908 122.389C444.628 122.389 445.988 124.372 445.988 128.339C445.988 132.305 444.628 134.289 441.908 134.289ZM441.908 133.609C442.52 133.609 442.996 133.422 443.336 133.048C443.688 132.674 443.931 132.107 444.067 131.348C444.215 130.577 444.288 129.574 444.288 128.339C444.288 127.103 444.215 126.106 444.067 125.347C443.931 124.576 443.688 124.004 443.336 123.63C442.996 123.256 442.52 123.069 441.908 123.069C441.296 123.069 440.815 123.256 440.463 123.63C440.123 124.004 439.88 124.576 439.732 125.347C439.596 126.106 439.528 127.103 439.528 128.339C439.528 129.574 439.596 130.577 439.732 131.348C439.88 132.107 440.123 132.674 440.463 133.048C440.815 133.422 441.296 133.609 441.908 133.609ZM449.065 124.429L447.416 125.5L447.11 125.109L449.745 122.729H450.595V133.949H449.065V124.429ZM456.03 134.289C455.18 134.289 454.301 134.119 453.395 133.779L453.48 133.439C454.182 133.552 454.919 133.609 455.69 133.609C456.687 133.609 457.429 133.229 457.917 132.47C458.415 131.699 458.665 130.634 458.665 129.274C458.325 129.512 457.951 129.699 457.543 129.835C457.146 129.971 456.67 130.039 456.115 130.039C454.959 130.039 454.103 129.704 453.548 129.036C452.992 128.356 452.715 127.415 452.715 126.214C452.715 125.534 452.851 124.905 453.123 124.327C453.395 123.749 453.808 123.284 454.364 122.933C454.919 122.57 455.588 122.389 456.37 122.389C457.707 122.389 458.693 122.887 459.328 123.885C459.962 124.871 460.28 126.355 460.28 128.339C460.28 130.322 459.928 131.812 459.226 132.81C458.534 133.796 457.469 134.289 456.03 134.289ZM456.625 129.359C457.033 129.359 457.395 129.291 457.713 129.155C458.03 129.007 458.347 128.792 458.665 128.509C458.665 126.639 458.461 125.267 458.053 124.395C457.645 123.511 457.084 123.069 456.37 123.069C455.746 123.069 455.248 123.38 454.874 124.004C454.511 124.627 454.33 125.364 454.33 126.214C454.33 128.31 455.095 129.359 456.625 129.359Z" fill="white"/>
<path d="M162.697 159.15C163.298 158.572 163.757 158.136 164.074 157.841C165.196 156.764 166.018 155.943 166.539 155.376C167.06 154.809 167.468 154.226 167.763 153.625C168.069 153.024 168.222 152.373 168.222 151.67C168.222 150.854 168.007 150.225 167.576 149.783C167.157 149.341 166.635 149.12 166.012 149.12C165.321 149.12 164.72 149.369 164.21 149.868C163.711 150.367 163.377 151.081 163.207 152.01H162.867C162.867 151.443 162.89 150.996 162.935 150.667C162.98 150.327 163.094 150.038 163.275 149.8C163.592 149.415 164.046 149.092 164.635 148.831C165.236 148.57 165.865 148.44 166.522 148.44C167.417 148.44 168.205 148.678 168.885 149.154C169.576 149.619 169.922 150.457 169.922 151.67C169.922 152.384 169.752 153.053 169.412 153.676C169.083 154.299 168.653 154.883 168.12 155.427C167.599 155.96 166.856 156.651 165.893 157.501C164.896 158.396 164.227 159.003 163.887 159.32H167.712C168.403 159.32 168.93 159.173 169.293 158.878C169.656 158.583 169.837 158.136 169.837 157.535H170.177V158.64C170.177 159.547 169.695 160 168.732 160H162.697V159.15ZM175.979 160.34C173.259 160.34 171.899 158.357 171.899 154.39C171.899 150.423 173.259 148.44 175.979 148.44C178.699 148.44 180.059 150.423 180.059 154.39C180.059 158.357 178.699 160.34 175.979 160.34ZM175.979 159.66C176.591 159.66 177.067 159.473 177.407 159.099C177.758 158.725 178.002 158.158 178.138 157.399C178.285 156.628 178.359 155.625 178.359 154.39C178.359 153.155 178.285 152.157 178.138 151.398C178.002 150.627 177.758 150.055 177.407 149.681C177.067 149.307 176.591 149.12 175.979 149.12C175.367 149.12 174.885 149.307 174.534 149.681C174.194 150.055 173.95 150.627 173.803 151.398C173.667 152.157 173.599 153.155 173.599 154.39C173.599 155.625 173.667 156.628 173.803 157.399C173.95 158.158 174.194 158.725 174.534 159.099C174.885 159.473 175.367 159.66 175.979 159.66ZM183.135 150.48L181.486 151.551L181.18 151.16L183.815 148.78H184.665V160H183.135V150.48ZM190.1 160.34C189.25 160.34 188.372 160.17 187.465 159.83L187.55 159.49C188.253 159.603 188.989 159.66 189.76 159.66C190.757 159.66 191.5 159.28 191.987 158.521C192.486 157.75 192.735 156.685 192.735 155.325C192.395 155.563 192.021 155.75 191.613 155.886C191.216 156.022 190.74 156.09 190.185 156.09C189.029 156.09 188.173 155.756 187.618 155.087C187.063 154.407 186.785 153.466 186.785 152.265C186.785 151.585 186.921 150.956 187.193 150.378C187.465 149.8 187.879 149.335 188.434 148.984C188.989 148.621 189.658 148.44 190.44 148.44C191.777 148.44 192.763 148.939 193.398 149.936C194.033 150.922 194.35 152.407 194.35 154.39C194.35 156.373 193.999 157.864 193.296 158.861C192.605 159.847 191.539 160.34 190.1 160.34ZM190.695 155.41C191.103 155.41 191.466 155.342 191.783 155.206C192.1 155.059 192.418 154.843 192.735 154.56C192.735 152.69 192.531 151.319 192.123 150.446C191.715 149.562 191.154 149.12 190.44 149.12C189.817 149.12 189.318 149.432 188.944 150.055C188.581 150.678 188.4 151.415 188.4 152.265C188.4 154.362 189.165 155.41 190.695 155.41Z" fill="white"/>
<path d="M530.697 11.15C531.298 10.572 531.757 10.1357 532.074 9.841C533.196 8.76433 534.018 7.94267 534.539 7.376C535.06 6.80933 535.468 6.22567 535.763 5.625C536.069 5.02433 536.222 4.37267 536.222 3.67C536.222 2.854 536.007 2.225 535.576 1.783C535.157 1.341 534.635 1.12 534.012 1.12C533.321 1.12 532.72 1.36933 532.21 1.868C531.711 2.36667 531.377 3.08067 531.207 4.01H530.867C530.867 3.44333 530.89 2.99567 530.935 2.667C530.98 2.327 531.094 2.038 531.275 1.8C531.592 1.41467 532.046 1.09167 532.635 0.831C533.236 0.570333 533.865 0.44 534.522 0.44C535.417 0.44 536.205 0.678 536.885 1.154C537.576 1.61867 537.922 2.45733 537.922 3.67C537.922 4.384 537.752 5.05267 537.412 5.676C537.083 6.29933 536.653 6.883 536.12 7.427C535.599 7.95967 534.856 8.651 533.893 9.501C532.896 10.3963 532.227 11.0027 531.887 11.32H535.712C536.403 11.32 536.93 11.1727 537.293 10.878C537.656 10.5833 537.837 10.1357 537.837 9.535H538.177V10.64C538.177 11.5467 537.695 12 536.732 12H530.697V11.15ZM543.979 12.34C541.259 12.34 539.899 10.3567 539.899 6.39C539.899 2.42333 541.259 0.44 543.979 0.44C546.699 0.44 548.059 2.42333 548.059 6.39C548.059 10.3567 546.699 12.34 543.979 12.34ZM543.979 11.66C544.591 11.66 545.067 11.473 545.407 11.099C545.758 10.725 546.002 10.1583 546.138 9.399C546.285 8.62833 546.359 7.62533 546.359 6.39C546.359 5.15467 546.285 4.15733 546.138 3.398C546.002 2.62733 545.758 2.055 545.407 1.681C545.067 1.307 544.591 1.12 543.979 1.12C543.367 1.12 542.885 1.307 542.534 1.681C542.194 2.055 541.95 2.62733 541.803 3.398C541.667 4.15733 541.599 5.15467 541.599 6.39C541.599 7.62533 541.667 8.62833 541.803 9.399C541.95 10.1583 542.194 10.725 542.534 11.099C542.885 11.473 543.367 11.66 543.979 11.66ZM549.639 11.15C550.24 10.572 550.699 10.1357 551.016 9.841C552.138 8.76433 552.96 7.94267 553.481 7.376C554.003 6.80933 554.411 6.22567 554.705 5.625C555.011 5.02433 555.164 4.37267 555.164 3.67C555.164 2.854 554.949 2.225 554.518 1.783C554.099 1.341 553.578 1.12 552.954 1.12C552.263 1.12 551.662 1.36933 551.152 1.868C550.654 2.36667 550.319 3.08067 550.149 4.01H549.809C549.809 3.44333 549.832 2.99567 549.877 2.667C549.923 2.327 550.036 2.038 550.217 1.8C550.535 1.41467 550.988 1.09167 551.577 0.831C552.178 0.570333 552.807 0.44 553.464 0.44C554.36 0.44 555.147 0.678 555.827 1.154C556.519 1.61867 556.864 2.45733 556.864 3.67C556.864 4.384 556.694 5.05267 556.354 5.676C556.026 6.29933 555.595 6.883 555.062 7.427C554.541 7.95967 553.799 8.651 552.835 9.501C551.838 10.3963 551.169 11.0027 550.829 11.32H554.654C555.346 11.32 555.873 11.1727 556.235 10.878C556.598 10.5833 556.779 10.1357 556.779 9.535H557.119V10.64C557.119 11.5467 556.638 12 555.674 12H549.639V11.15ZM562.921 12.34C560.201 12.34 558.841 10.3567 558.841 6.39C558.841 2.42333 560.201 0.44 562.921 0.44C565.641 0.44 567.001 2.42333 567.001 6.39C567.001 10.3567 565.641 12.34 562.921 12.34ZM562.921 11.66C563.533 11.66 564.009 11.473 564.349 11.099C564.7 10.725 564.944 10.1583 565.08 9.399C565.227 8.62833 565.301 7.62533 565.301 6.39C565.301 5.15467 565.227 4.15733 565.08 3.398C564.944 2.62733 564.7 2.055 564.349 1.681C564.009 1.307 563.533 1.12 562.921 1.12C562.309 1.12 561.827 1.307 561.476 1.681C561.136 2.055 560.892 2.62733 560.745 3.398C560.609 4.15733 560.541 5.15467 560.541 6.39C560.541 7.62533 560.609 8.62833 560.745 9.399C560.892 10.1583 561.136 10.725 561.476 11.099C561.827 11.473 562.309 11.66 562.921 11.66Z" fill="white"/>
<path d="M690.697 96.15C691.298 95.572 691.757 95.1357 692.074 94.841C693.196 93.7643 694.018 92.9427 694.539 92.376C695.06 91.8093 695.468 91.2257 695.763 90.625C696.069 90.0243 696.222 89.3727 696.222 88.67C696.222 87.854 696.007 87.225 695.576 86.783C695.157 86.341 694.635 86.12 694.012 86.12C693.321 86.12 692.72 86.3693 692.21 86.868C691.711 87.3667 691.377 88.0807 691.207 89.01H690.867C690.867 88.4433 690.89 87.9957 690.935 87.667C690.98 87.327 691.094 87.038 691.275 86.8C691.592 86.4147 692.046 86.0917 692.635 85.831C693.236 85.5703 693.865 85.44 694.522 85.44C695.417 85.44 696.205 85.678 696.885 86.154C697.576 86.6187 697.922 87.4573 697.922 88.67C697.922 89.384 697.752 90.0527 697.412 90.676C697.083 91.2993 696.653 91.883 696.12 92.427C695.599 92.9597 694.856 93.651 693.893 94.501C692.896 95.3963 692.227 96.0027 691.887 96.32H695.712C696.403 96.32 696.93 96.1727 697.293 95.878C697.656 95.5833 697.837 95.1357 697.837 94.535H698.177V95.64C698.177 96.5467 697.695 97 696.732 97H690.697V96.15ZM703.979 97.34C701.259 97.34 699.899 95.3567 699.899 91.39C699.899 87.4233 701.259 85.44 703.979 85.44C706.699 85.44 708.059 87.4233 708.059 91.39C708.059 95.3567 706.699 97.34 703.979 97.34ZM703.979 96.66C704.591 96.66 705.067 96.473 705.407 96.099C705.758 95.725 706.002 95.1583 706.138 94.399C706.285 93.6283 706.359 92.6253 706.359 91.39C706.359 90.1547 706.285 89.1573 706.138 88.398C706.002 87.6273 705.758 87.055 705.407 86.681C705.067 86.307 704.591 86.12 703.979 86.12C703.367 86.12 702.885 86.307 702.534 86.681C702.194 87.055 701.95 87.6273 701.803 88.398C701.667 89.1573 701.599 90.1547 701.599 91.39C701.599 92.6253 701.667 93.6283 701.803 94.399C701.95 95.1583 702.194 95.725 702.534 96.099C702.885 96.473 703.367 96.66 703.979 96.66ZM711.135 87.48L709.486 88.551L709.18 88.16L711.815 85.78H712.665V97H711.135V87.48ZM718.1 97.34C717.25 97.34 716.372 97.17 715.465 96.83L715.55 96.49C716.253 96.6033 716.989 96.66 717.76 96.66C718.757 96.66 719.5 96.2803 719.987 95.521C720.486 94.7503 720.735 93.685 720.735 92.325C720.395 92.563 720.021 92.75 719.613 92.886C719.216 93.022 718.74 93.09 718.185 93.09C717.029 93.09 716.173 92.7557 715.618 92.087C715.063 91.407 714.785 90.4663 714.785 89.265C714.785 88.585 714.921 87.956 715.193 87.378C715.465 86.8 715.879 86.3353 716.434 85.984C716.989 85.6213 717.658 85.44 718.44 85.44C719.777 85.44 720.763 85.9387 721.398 86.936C722.033 87.922 722.35 89.4067 722.35 91.39C722.35 93.3733 721.999 94.8637 721.296 95.861C720.605 96.847 719.539 97.34 718.1 97.34ZM718.695 92.41C719.103 92.41 719.466 92.342 719.783 92.206C720.1 92.0587 720.418 91.8433 720.735 91.56C720.735 89.69 720.531 88.3187 720.123 87.446C719.715 86.562 719.154 86.12 718.44 86.12C717.817 86.12 717.318 86.4317 716.944 87.055C716.581 87.6783 716.4 88.415 716.4 89.265C716.4 91.3617 717.165 92.41 718.695 92.41Z" fill="white"/>
<path d="M794.697 76.15C795.298 75.572 795.757 75.1357 796.074 74.841C797.196 73.7643 798.018 72.9427 798.539 72.376C799.06 71.8093 799.468 71.2257 799.763 70.625C800.069 70.0243 800.222 69.3727 800.222 68.67C800.222 67.854 800.007 67.225 799.576 66.783C799.157 66.341 798.635 66.12 798.012 66.12C797.321 66.12 796.72 66.3693 796.21 66.868C795.711 67.3667 795.377 68.0807 795.207 69.01H794.867C794.867 68.4433 794.89 67.9957 794.935 67.667C794.98 67.327 795.094 67.038 795.275 66.8C795.592 66.4147 796.046 66.0917 796.635 65.831C797.236 65.5703 797.865 65.44 798.522 65.44C799.417 65.44 800.205 65.678 800.885 66.154C801.576 66.6187 801.922 67.4573 801.922 68.67C801.922 69.384 801.752 70.0527 801.412 70.676C801.083 71.2993 800.653 71.883 800.12 72.427C799.599 72.9597 798.856 73.651 797.893 74.501C796.896 75.3963 796.227 76.0027 795.887 76.32H799.712C800.403 76.32 800.93 76.1727 801.293 75.878C801.656 75.5833 801.837 75.1357 801.837 74.535H802.177V75.64C802.177 76.5467 801.695 77 800.732 77H794.697V76.15ZM807.979 77.34C805.259 77.34 803.899 75.3567 803.899 71.39C803.899 67.4233 805.259 65.44 807.979 65.44C810.699 65.44 812.059 67.4233 812.059 71.39C812.059 75.3567 810.699 77.34 807.979 77.34ZM807.979 76.66C808.591 76.66 809.067 76.473 809.407 76.099C809.758 75.725 810.002 75.1583 810.138 74.399C810.285 73.6283 810.359 72.6253 810.359 71.39C810.359 70.1547 810.285 69.1573 810.138 68.398C810.002 67.6273 809.758 67.055 809.407 66.681C809.067 66.307 808.591 66.12 807.979 66.12C807.367 66.12 806.885 66.307 806.534 66.681C806.194 67.055 805.95 67.6273 805.803 68.398C805.667 69.1573 805.599 70.1547 805.599 71.39C805.599 72.6253 805.667 73.6283 805.803 74.399C805.95 75.1583 806.194 75.725 806.534 76.099C806.885 76.473 807.367 76.66 807.979 76.66ZM813.639 76.15C814.24 75.572 814.699 75.1357 815.016 74.841C816.138 73.7643 816.96 72.9427 817.481 72.376C818.003 71.8093 818.411 71.2257 818.705 70.625C819.011 70.0243 819.164 69.3727 819.164 68.67C819.164 67.854 818.949 67.225 818.518 66.783C818.099 66.341 817.578 66.12 816.954 66.12C816.263 66.12 815.662 66.3693 815.152 66.868C814.654 67.3667 814.319 68.0807 814.149 69.01H813.809C813.809 68.4433 813.832 67.9957 813.877 67.667C813.923 67.327 814.036 67.038 814.217 66.8C814.535 66.4147 814.988 66.0917 815.577 65.831C816.178 65.5703 816.807 65.44 817.464 65.44C818.36 65.44 819.147 65.678 819.827 66.154C820.519 66.6187 820.864 67.4573 820.864 68.67C820.864 69.384 820.694 70.0527 820.354 70.676C820.026 71.2993 819.595 71.883 819.062 72.427C818.541 72.9597 817.799 73.651 816.835 74.501C815.838 75.3963 815.169 76.0027 814.829 76.32H818.654C819.346 76.32 819.873 76.1727 820.235 75.878C820.598 75.5833 820.779 75.1357 820.779 74.535H821.119V75.64C821.119 76.5467 820.638 77 819.674 77H813.639V76.15ZM826.921 77.34C824.201 77.34 822.841 75.3567 822.841 71.39C822.841 67.4233 824.201 65.44 826.921 65.44C829.641 65.44 831.001 67.4233 831.001 71.39C831.001 75.3567 829.641 77.34 826.921 77.34ZM826.921 76.66C827.533 76.66 828.009 76.473 828.349 76.099C828.7 75.725 828.944 75.1583 829.08 74.399C829.227 73.6283 829.301 72.6253 829.301 71.39C829.301 70.1547 829.227 69.1573 829.08 68.398C828.944 67.6273 828.7 67.055 828.349 66.681C828.009 66.307 827.533 66.12 826.921 66.12C826.309 66.12 825.827 66.307 825.476 66.681C825.136 67.055 824.892 67.6273 824.745 68.398C824.609 69.1573 824.541 70.1547 824.541 71.39C824.541 72.6253 824.609 73.6283 824.745 74.399C824.892 75.1583 825.136 75.725 825.476 76.099C825.827 76.473 826.309 76.66 826.921 76.66Z" fill="white"/>
<path d="M946.697 54.15C947.298 53.572 947.757 53.1357 948.074 52.841C949.196 51.7643 950.018 50.9427 950.539 50.376C951.06 49.8093 951.468 49.2257 951.763 48.625C952.069 48.0243 952.222 47.3727 952.222 46.67C952.222 45.854 952.007 45.225 951.576 44.783C951.157 44.341 950.635 44.12 950.012 44.12C949.321 44.12 948.72 44.3693 948.21 44.868C947.711 45.3667 947.377 46.0807 947.207 47.01H946.867C946.867 46.4433 946.89 45.9957 946.935 45.667C946.98 45.327 947.094 45.038 947.275 44.8C947.592 44.4147 948.046 44.0917 948.635 43.831C949.236 43.5703 949.865 43.44 950.522 43.44C951.417 43.44 952.205 43.678 952.885 44.154C953.576 44.6187 953.922 45.4573 953.922 46.67C953.922 47.384 953.752 48.0527 953.412 48.676C953.083 49.2993 952.653 49.883 952.12 50.427C951.599 50.9597 950.856 51.651 949.893 52.501C948.896 53.3963 948.227 54.0027 947.887 54.32H951.712C952.403 54.32 952.93 54.1727 953.293 53.878C953.656 53.5833 953.837 53.1357 953.837 52.535H954.177V53.64C954.177 54.5467 953.695 55 952.732 55H946.697V54.15ZM959.979 55.34C957.259 55.34 955.899 53.3567 955.899 49.39C955.899 45.4233 957.259 43.44 959.979 43.44C962.699 43.44 964.059 45.4233 964.059 49.39C964.059 53.3567 962.699 55.34 959.979 55.34ZM959.979 54.66C960.591 54.66 961.067 54.473 961.407 54.099C961.758 53.725 962.002 53.1583 962.138 52.399C962.285 51.6283 962.359 50.6253 962.359 49.39C962.359 48.1547 962.285 47.1573 962.138 46.398C962.002 45.6273 961.758 45.055 961.407 44.681C961.067 44.307 960.591 44.12 959.979 44.12C959.367 44.12 958.885 44.307 958.534 44.681C958.194 45.055 957.95 45.6273 957.803 46.398C957.667 47.1573 957.599 48.1547 957.599 49.39C957.599 50.6253 957.667 51.6283 957.803 52.399C957.95 53.1583 958.194 53.725 958.534 54.099C958.885 54.473 959.367 54.66 959.979 54.66ZM967.135 45.48L965.486 46.551L965.18 46.16L967.815 43.78H968.665V55H967.135V45.48ZM974.1 55.34C973.25 55.34 972.372 55.17 971.465 54.83L971.55 54.49C972.253 54.6033 972.989 54.66 973.76 54.66C974.757 54.66 975.5 54.2803 975.987 53.521C976.486 52.7503 976.735 51.685 976.735 50.325C976.395 50.563 976.021 50.75 975.613 50.886C975.216 51.022 974.74 51.09 974.185 51.09C973.029 51.09 972.173 50.7557 971.618 50.087C971.063 49.407 970.785 48.4663 970.785 47.265C970.785 46.585 970.921 45.956 971.193 45.378C971.465 44.8 971.879 44.3353 972.434 43.984C972.989 43.6213 973.658 43.44 974.44 43.44C975.777 43.44 976.763 43.9387 977.398 44.936C978.033 45.922 978.35 47.4067 978.35 49.39C978.35 51.3733 977.999 52.8637 977.296 53.861C976.605 54.847 975.539 55.34 974.1 55.34ZM974.695 50.41C975.103 50.41 975.466 50.342 975.783 50.206C976.1 50.0587 976.418 49.8433 976.735 49.56C976.735 47.69 976.531 46.3187 976.123 45.446C975.715 44.562 975.154 44.12 974.44 44.12C973.817 44.12 973.318 44.4317 972.944 45.055C972.581 45.6783 972.4 46.415 972.4 47.265C972.4 49.3617 973.165 50.41 974.695 50.41Z" fill="white"/>
<path d="M1054.7 21.15C1055.3 20.572 1055.76 20.1357 1056.07 19.841C1057.2 18.7643 1058.02 17.9427 1058.54 17.376C1059.06 16.8093 1059.47 16.2257 1059.76 15.625C1060.07 15.0243 1060.22 14.3727 1060.22 13.67C1060.22 12.854 1060.01 12.225 1059.58 11.783C1059.16 11.341 1058.64 11.12 1058.01 11.12C1057.32 11.12 1056.72 11.3693 1056.21 11.868C1055.71 12.3667 1055.38 13.0807 1055.21 14.01H1054.87C1054.87 13.4433 1054.89 12.9957 1054.94 12.667C1054.98 12.327 1055.09 12.038 1055.28 11.8C1055.59 11.4147 1056.05 11.0917 1056.64 10.831C1057.24 10.5703 1057.86 10.44 1058.52 10.44C1059.42 10.44 1060.21 10.678 1060.89 11.154C1061.58 11.6187 1061.92 12.4573 1061.92 13.67C1061.92 14.384 1061.75 15.0527 1061.41 15.676C1061.08 16.2993 1060.65 16.883 1060.12 17.427C1059.6 17.9597 1058.86 18.651 1057.89 19.501C1056.9 20.3963 1056.23 21.0027 1055.89 21.32H1059.71C1060.4 21.32 1060.93 21.1727 1061.29 20.878C1061.66 20.5833 1061.84 20.1357 1061.84 19.535H1062.18V20.64C1062.18 21.5467 1061.7 22 1060.73 22H1054.7V21.15ZM1067.98 22.34C1065.26 22.34 1063.9 20.3567 1063.9 16.39C1063.9 12.4233 1065.26 10.44 1067.98 10.44C1070.7 10.44 1072.06 12.4233 1072.06 16.39C1072.06 20.3567 1070.7 22.34 1067.98 22.34ZM1067.98 21.66C1068.59 21.66 1069.07 21.473 1069.41 21.099C1069.76 20.725 1070 20.1583 1070.14 19.399C1070.28 18.6283 1070.36 17.6253 1070.36 16.39C1070.36 15.1547 1070.28 14.1573 1070.14 13.398C1070 12.6273 1069.76 12.055 1069.41 11.681C1069.07 11.307 1068.59 11.12 1067.98 11.12C1067.37 11.12 1066.88 11.307 1066.53 11.681C1066.19 12.055 1065.95 12.6273 1065.8 13.398C1065.67 14.1573 1065.6 15.1547 1065.6 16.39C1065.6 17.6253 1065.67 18.6283 1065.8 19.399C1065.95 20.1583 1066.19 20.725 1066.53 21.099C1066.88 21.473 1067.37 21.66 1067.98 21.66ZM1073.64 21.15C1074.24 20.572 1074.7 20.1357 1075.02 19.841C1076.14 18.7643 1076.96 17.9427 1077.48 17.376C1078 16.8093 1078.41 16.2257 1078.71 15.625C1079.01 15.0243 1079.16 14.3727 1079.16 13.67C1079.16 12.854 1078.95 12.225 1078.52 11.783C1078.1 11.341 1077.58 11.12 1076.95 11.12C1076.26 11.12 1075.66 11.3693 1075.15 11.868C1074.65 12.3667 1074.32 13.0807 1074.15 14.01H1073.81C1073.81 13.4433 1073.83 12.9957 1073.88 12.667C1073.92 12.327 1074.04 12.038 1074.22 11.8C1074.53 11.4147 1074.99 11.0917 1075.58 10.831C1076.18 10.5703 1076.81 10.44 1077.46 10.44C1078.36 10.44 1079.15 10.678 1079.83 11.154C1080.52 11.6187 1080.86 12.4573 1080.86 13.67C1080.86 14.384 1080.69 15.0527 1080.35 15.676C1080.03 16.2993 1079.6 16.883 1079.06 17.427C1078.54 17.9597 1077.8 18.651 1076.84 19.501C1075.84 20.3963 1075.17 21.0027 1074.83 21.32H1078.65C1079.35 21.32 1079.87 21.1727 1080.24 20.878C1080.6 20.5833 1080.78 20.1357 1080.78 19.535H1081.12V20.64C1081.12 21.5467 1080.64 22 1079.67 22H1073.64V21.15ZM1086.92 22.34C1084.2 22.34 1082.84 20.3567 1082.84 16.39C1082.84 12.4233 1084.2 10.44 1086.92 10.44C1089.64 10.44 1091 12.4233 1091 16.39C1091 20.3567 1089.64 22.34 1086.92 22.34ZM1086.92 21.66C1087.53 21.66 1088.01 21.473 1088.35 21.099C1088.7 20.725 1088.94 20.1583 1089.08 19.399C1089.23 18.6283 1089.3 17.6253 1089.3 16.39C1089.3 15.1547 1089.23 14.1573 1089.08 13.398C1088.94 12.6273 1088.7 12.055 1088.35 11.681C1088.01 11.307 1087.53 11.12 1086.92 11.12C1086.31 11.12 1085.83 11.307 1085.48 11.681C1085.14 12.055 1084.89 12.6273 1084.75 13.398C1084.61 14.1573 1084.54 15.1547 1084.54 16.39C1084.54 17.6253 1084.61 18.6283 1084.75 19.399C1084.89 20.1583 1085.14 20.725 1085.48 21.099C1085.83 21.473 1086.31 21.66 1086.92 21.66Z" fill="white"/>
<path d="M233.932 315.076V325.936H234.94V315.076H233.932ZM234.664 319.48V320.308H236.668V319.48H234.664ZM231.16 316.252V316.408C231.16 319.276 229.66 321.592 226.66 323.116L227.212 323.884C230.716 322.12 232.132 319.336 232.132 316.252H231.16ZM227.164 316.252V317.068H231.676V316.252H227.164ZM241.887 315.952V316.276C241.887 317.512 240.123 318.496 238.179 318.724L238.539 319.504C240.783 319.228 242.775 318.028 242.775 316.276V315.952H241.887ZM242.307 315.952V316.276C242.307 318.028 244.287 319.228 246.531 319.504L246.891 318.724C244.947 318.508 243.183 317.512 243.183 316.276V315.952H242.307ZM238.527 315.532V316.336H246.555V315.532H238.527ZM237.627 320.524V321.34H247.467V320.524H237.627ZM242.031 318.904V320.92H243.015V318.904H242.031ZM238.719 322.42V323.224H245.223V325.936H246.219V322.42H238.719ZM248.666 320.632V321.448H258.494V320.632H248.666ZM253.154 321.136V323.632H254.15V321.136H253.154ZM249.926 315.592V319.408H257.222V315.592H249.926ZM256.238 316.396V318.604H250.898V316.396H256.238ZM249.914 324.88V325.696H257.402V324.88H249.914ZM249.914 322.588V325.168H250.898V322.588H249.914ZM267.961 315.088V325.936H268.921V315.088H267.961ZM264.013 318.976V319.804H266.089V318.976H264.013ZM265.789 315.34V325.384H266.725V315.34H265.789ZM261.925 316.768V318.148C261.925 320.14 261.085 322.12 259.573 323.032L260.185 323.776C261.781 322.768 262.693 320.524 262.693 318.148V316.768H261.925ZM262.129 316.768V318.148C262.129 320.416 263.005 322.552 264.589 323.512L265.201 322.78C263.713 321.916 262.897 320.032 262.897 318.148V316.768H262.129ZM259.873 316.348V317.176H264.829V316.348H259.873Z" fill="white"/>
<path d="M452.384 325.896V326.724H454.832V325.896H452.384ZM454.52 323.088V329.556H455.516V323.088H454.52ZM451.952 329.88C449.708 329.88 448.328 330.636 448.328 331.908C448.328 333.192 449.708 333.924 451.952 333.924C454.184 333.924 455.564 333.192 455.564 331.908C455.564 330.636 454.184 329.88 451.952 329.88ZM451.952 330.66C453.584 330.66 454.58 331.116 454.58 331.908C454.58 332.688 453.584 333.144 451.952 333.144C450.32 333.144 449.324 332.688 449.324 331.908C449.324 331.116 450.32 330.66 451.952 330.66ZM449.36 324.18V325.056C449.36 326.616 448.244 328.068 446.636 328.656L447.152 329.448C448.952 328.776 450.176 327.06 450.176 325.056V324.18H449.36ZM449.552 324.18V325.056C449.552 326.88 450.716 328.512 452.48 329.148L452.984 328.356C451.412 327.804 450.356 326.46 450.356 325.056V324.18H449.552ZM446.936 323.88V324.696H452.732V323.88H446.936ZM465.523 323.1V331.044H466.531V323.1H465.523ZM459.559 332.88V333.696H466.855V332.88H459.559ZM459.559 330.312V333.264H460.543V330.312H459.559ZM460.459 323.688V324.792C460.459 326.472 459.379 328.056 457.747 328.692L458.263 329.496C460.087 328.752 461.287 326.904 461.287 324.792V323.688H460.459ZM460.639 323.688V324.792C460.639 326.856 461.839 328.596 463.639 329.292L464.167 328.488C462.547 327.9 461.455 326.424 461.455 324.792V323.688H460.639ZM476.598 323.088V331.104H477.594V323.088H476.598ZM474.258 326.436V327.264H476.79V326.436H474.258ZM473.25 323.928V324.324C473.25 326.472 471.486 328.176 468.834 329.064L469.266 329.868C472.326 328.848 474.294 326.724 474.294 323.928H473.25ZM469.374 323.928V324.744H473.898V323.928H469.374ZM470.742 332.88V333.696H477.87V332.88H470.742ZM470.742 330.3V333.288H471.738V330.3H470.742ZM487.133 323.088V329.58H488.129V323.088H487.133ZM487.853 325.884V326.724H489.737V325.884H487.853ZM484.133 323.88V324.336C484.133 326.364 482.477 327.996 479.717 328.812L480.137 329.616C483.269 328.692 485.201 326.664 485.201 323.88H484.133ZM480.197 323.88V324.708H484.697V323.88H480.197ZM484.733 329.712C482.573 329.712 481.193 330.504 481.193 331.812C481.193 333.12 482.573 333.912 484.733 333.912C486.881 333.912 488.249 333.12 488.249 331.812C488.249 330.504 486.881 329.712 484.733 329.712ZM484.733 330.504C486.293 330.504 487.289 330.996 487.289 331.812C487.289 332.628 486.293 333.12 484.733 333.12C483.173 333.12 482.177 332.628 482.177 331.812C482.177 330.996 483.173 330.504 484.733 330.504Z" fill="white"/>
<path d="M739.624 321.228V322.044H746.032V321.228H739.624ZM742.828 322.596C741.268 322.596 740.224 323.364 740.224 324.564C740.224 325.752 741.268 326.508 742.828 326.508C744.364 326.508 745.42 325.752 745.42 324.564C745.42 323.364 744.364 322.596 742.828 322.596ZM742.828 323.376C743.8 323.376 744.472 323.832 744.472 324.564C744.472 325.272 743.8 325.74 742.828 325.74C741.832 325.74 741.172 325.272 741.172 324.564C741.172 323.832 741.832 323.376 742.828 323.376ZM747.016 320.088V326.868H748.012V320.088H747.016ZM747.736 323.076V323.904H749.62V323.076H747.736ZM740.968 327.456V328.272H747.016V330.936H748.012V327.456H740.968ZM742.324 320.028V321.684H743.32V320.028H742.324ZM756.087 322.668V323.496H759.003V322.668H756.087ZM753.591 320.58C751.971 320.58 750.795 321.612 750.795 323.1C750.795 324.588 751.971 325.608 753.591 325.608C755.211 325.608 756.387 324.588 756.387 323.1C756.387 321.612 755.211 320.58 753.591 320.58ZM753.591 321.42C754.659 321.42 755.427 322.104 755.427 323.1C755.427 324.084 754.659 324.78 753.591 324.78C752.523 324.78 751.755 324.084 751.755 323.1C751.755 322.104 752.523 321.42 753.591 321.42ZM758.559 320.088V325.908H759.555V320.088H758.559ZM752.607 326.448V330.792H759.555V326.448H758.571V327.816H753.603V326.448H752.607ZM753.603 328.608H758.571V329.988H753.603V328.608ZM764.558 321.276V322.38C764.558 323.928 763.454 325.332 761.822 325.908L762.338 326.7C764.162 326.04 765.386 324.372 765.386 322.38V321.276H764.558ZM764.75 321.276V322.38C764.75 324.288 765.998 325.872 767.798 326.484L768.314 325.704C766.706 325.164 765.578 323.844 765.578 322.38V321.276H764.75ZM762.086 320.988V321.792H768.026V320.988H762.086ZM769.562 320.1V328.032H770.57V320.1H769.562ZM763.598 329.88V330.696H770.894V329.88H763.598ZM763.598 327.288V330.24H764.582V327.288H763.598ZM772.717 328.776V329.604H782.545V328.776H772.717ZM777.109 326.448V329.124H778.105V326.448H777.109ZM773.905 320.892V321.696H780.349V323.376H773.941V326.352H774.925V324.18H781.333V320.892H773.905ZM773.941 325.932V326.748H781.585V325.932H773.941Z" fill="white"/>
</svg>
