<svg width="763" height="160" viewBox="0 0 763 160" fill="none" xmlns="http://www.w3.org/2000/svg">
<path d="M151.216 24.1187C140.623 61.3644 101.843 33.7874 77.4873 32.3577C53.1315 30.9281 45.4678 60.8508 33.4854 68.7109C25.3321 74.0593 10.7731 76.8005 8.16518 67.8202" stroke="white" stroke-width="15" stroke-linecap="round"/>
<path d="M411.672 7.56071C393.648 70.9332 327.665 24.0117 286.225 21.5791C244.784 19.1466 231.744 70.0593 211.357 83.433C197.484 92.5331 172.712 97.1972 168.275 81.9175" stroke="white" stroke-width="15" stroke-linecap="round"/>
<path d="M755.272 11.9101C726.062 114.615 619.125 38.5714 551.965 34.6292C484.804 30.6869 463.671 113.199 430.63 134.873C408.147 149.621 368 157.18 360.809 132.417" stroke="white" stroke-width="15" stroke-linecap="round"/>
</svg>
