<svg width="394" height="313" viewBox="0 0 394 313" fill="none" xmlns="http://www.w3.org/2000/svg">
<path fill-rule="evenodd" clip-rule="evenodd" d="M137.818 229.99C194.041 227.858 237.88 180.242 235.733 123.635C233.587 67.0292 186.269 22.869 130.045 25.0009C73.8213 27.1327 29.983 74.7492 32.1293 131.355C32.7449 147.592 37.0773 162.805 44.2703 176.196C35.8414 186.899 26.8185 208.149 21.4701 221.198C18.4204 228.639 25.5421 225.794 36.5446 221.399C48.2 216.744 64.2104 210.349 77.098 212.598C94.3876 224.327 115.394 230.84 137.818 229.99Z" fill="#186BFF"/>
<path d="M205.311 167.687C201.394 190.683 179.539 206.144 156.495 202.219C133.451 198.295 117.945 176.472 121.861 153.476C125.777 130.48 137.575 156.152 160.619 160.077C183.663 164.001 209.227 144.692 205.311 167.687Z" fill="white"/>
<path fill-rule="evenodd" clip-rule="evenodd" d="M284.295 274.569C239.908 272.886 205.299 235.294 206.994 190.606C208.688 145.917 246.044 111.054 290.431 112.737C334.818 114.42 369.426 152.012 367.732 196.701C367.246 209.519 363.826 221.53 358.147 232.101C364.801 240.551 371.924 257.327 376.146 267.628C378.554 273.502 372.931 271.257 364.245 267.787C355.044 264.112 342.405 259.063 332.231 260.839C318.581 270.098 301.997 275.24 284.295 274.569Z" fill="#33D8FE"/>
<path d="M307.094 204.206H242.563C239.883 216.848 248.433 244.206 274.713 244.206C302.156 244.206 304.721 219.317 307.094 204.206Z" fill="white"/>
</svg>
